<?xml version="1.0" encoding="utf-8"?>
<!-- Generator: Adobe Illustrator 27.5.0, SVG Export Plug-In . SVG Version: 6.00 Build 0)  -->
<svg version="1.1" id="Cinema_Movies_Icons" xmlns="http://www.w3.org/2000/svg" xmlns:xlink="http://www.w3.org/1999/xlink"
	 x="0px" y="0px" viewBox="0 0 800 800" style="enable-background:new 0 0 800 800;" xml:space="preserve">
<g>
	<rect x="0.351" y="0.351" style="fill:#ECF0F1;" width="798.701" height="798.701"/>
	<g>
		<g>
			<rect x="404.493" y="164.21" style="fill:#7A6964;" width="188.295" height="188.293"/>
			<linearGradient id="SVGID_1_" gradientUnits="userSpaceOnUse" x1="479.0897" y1="240.0073" x2="592.5545" y2="323.8743">
				<stop  offset="0" style="stop-color:#5C4F4B"/>
				<stop  offset="1" style="stop-color:#7A6964"/>
			</linearGradient>
			<polygon style="fill:url(#SVGID_1_);" points="592.788,212.669 592.788,352.503 487.81,352.503 451.907,331.293 541.383,182.991 
							"/>
		</g>
		<g>
			<defs>
				<path id="SVGID_00000126304088087538178030000013199715582663162019_" d="M585.256,258.356
					c0,47.836-38.779,86.614-86.616,86.614c-47.836,0-86.614-38.778-86.614-86.614c0-47.836,38.778-86.615,86.614-86.615
					C546.477,171.741,585.256,210.52,585.256,258.356z"/>
			</defs>
			<use xlink:href="#SVGID_00000126304088087538178030000013199715582663162019_"  style="overflow:visible;fill:#C7EBE3;"/>
			<clipPath id="SVGID_00000059294463892542542180000000565986124658058151_">
				<use xlink:href="#SVGID_00000126304088087538178030000013199715582663162019_"  style="overflow:visible;"/>
			</clipPath>
			<g style="clip-path:url(#SVGID_00000059294463892542542180000000565986124658058151_);">
				
					<linearGradient id="SVGID_00000163044790385109020460000001234740988261695922_" gradientUnits="userSpaceOnUse" x1="482.0931" y1="246.0377" x2="595.3328" y2="320.2645">
					<stop  offset="0" style="stop-color:#95B0AA"/>
					<stop  offset="0.2874" style="stop-color:#A0BDB6"/>
					<stop  offset="0.8121" style="stop-color:#BCDED6"/>
					<stop  offset="1" style="stop-color:#C7EBE3"/>
				</linearGradient>
				<polygon style="fill:url(#SVGID_00000163044790385109020460000001234740988261695922_);" points="590.355,233.327 
					585.256,321.163 518.839,348.808 454.957,311.925 457.604,229.441 541.248,204.976 				"/>
				<g>
					<path style="fill:#1C3E45;" d="M545.574,236.001v73.688c0,1.471-1.204,2.674-2.675,2.674h-86.403
						c-1.469,0-2.674-1.203-2.674-2.674v-73.688c0-1.471,1.205-2.674,2.674-2.674h86.403c0.968,0,1.819,0.521,2.282,1.292
						C545.432,235.025,545.574,235.498,545.574,236.001z"/>
					<path style="fill:#1C3E45;" d="M543.722,215.848c0.018,0.139,0.018,0.27,0,0.409c-0.016,0.277-0.073,0.547-0.171,0.793
						c-0.327,0.841-1.071,1.503-2.019,1.675l-4.452,0.793l-10.802,1.913l-7.436,1.324l-10.804,1.919l-7.434,1.324l-10.796,1.92
						l-7.435,1.324l-10.802,1.912l-15.109,2.688c-1.446,0.262-2.843-0.71-3.105-2.165l-1.61-9.07
						c-0.253-1.446,0.72-2.843,2.165-3.096l6.831-1.217l0.058-0.009l10.745-1.903l0.059-0.008l7.378-1.316l0.056-0.008l10.738-1.913
						l0.058-0.008l7.387-1.316l0.048-0.008l10.747-1.913l0.055-0.008l7.379-1.308l0.058-0.008h0.009l10.737-1.912l0.058-0.009
						l7.37-1.316l0.057-0.008l4.977-0.882l0.269-0.049c1.421-0.261,2.786,0.67,3.082,2.075c0.007,0.017,0.007,0.025,0.016,0.041
						l0.008,0.041l0.466,2.631l1.144,6.439v0.008c0,0.033,0.009,0.065,0.017,0.09C543.722,215.758,543.722,215.807,543.722,215.848z
						"/>
					<g>
						<polygon style="fill:#ECF0F1;" points="482.368,229.164 471.568,231.084 460.744,218.22 471.544,216.3 						"/>
						<polygon style="fill:#ECF0F1;" points="500.603,225.923 489.805,227.842 478.979,214.978 489.778,213.058 						"/>
						<polygon style="fill:#ECF0F1;" points="518.839,222.681 508.04,224.601 497.215,211.738 508.015,209.817 						"/>
						<polygon style="fill:#ECF0F1;" points="537.073,219.439 526.273,221.359 515.451,208.496 526.248,206.576 						"/>
						<path style="fill:#ECF0F1;" d="M543.722,215.848c0.018,0.139,0.018,0.27,0,0.409c-0.024,0.253-0.081,0.49-0.171,0.719
							l-9.815-11.653l-0.057-0.065l5.033-0.898v0.082l0.269-0.049c1.421-0.261,2.786,0.67,3.082,2.075
							c0.007,0.017,0.007,0.025,0.016,0.041l0.008,0.041l0.474,2.631l1.136,6.366v0.008c0.009,0.058,0.017,0.107,0.017,0.164
							C543.722,215.758,543.722,215.807,543.722,215.848z"/>
					</g>
					<g>
						<polygon style="fill:#ECF0F1;" points="482.81,233.327 471.844,233.327 463.436,247.887 474.405,247.887 						"/>
						<polygon style="fill:#ECF0F1;" points="501.332,233.327 490.363,233.327 481.958,247.887 492.926,247.887 						"/>
						<polygon style="fill:#ECF0F1;" points="519.852,233.327 508.885,233.327 500.478,247.887 511.448,247.887 						"/>
						<polygon style="fill:#ECF0F1;" points="538.375,233.327 527.405,233.327 518.999,247.887 529.968,247.887 						"/>
						<path style="fill:#ECF0F1;" d="M545.574,236.001v11.887h-8.054l5.933-10.274l1.729-2.995
							C545.432,235.025,545.574,235.498,545.574,236.001z"/>
					</g>
					<g>
						<path style="fill:#132A2E;" d="M462.904,238.573c0.318,0.945-0.238,1.719-1.235,1.719h-8.13c-0.999,0-1.815-0.816-1.815-1.814
							v-17.512c0-0.998,0.81-1.915,1.8-2.041l0.858-0.109c0.99-0.125,2.059,0.545,2.377,1.491L462.904,238.573z"/>
						<path style="fill:#336E7B;" d="M457.081,237.395c0,0.788-0.638,1.426-1.427,1.426c-0.788,0-1.427-0.639-1.427-1.426
							c0-0.789,0.639-1.428,1.427-1.428C456.443,235.967,457.081,236.606,457.081,237.395z"/>
						<path style="fill:#336E7B;" d="M461.595,237.395c0,0.788-0.64,1.426-1.428,1.426s-1.426-0.639-1.426-1.426
							c0-0.789,0.638-1.428,1.426-1.428S461.595,236.606,461.595,237.395z"/>
						<path style="fill:#336E7B;" d="M456.052,223.282c0,0.616-0.499,1.115-1.115,1.115c-0.615,0-1.114-0.499-1.114-1.115
							c0-0.616,0.499-1.114,1.114-1.114C455.553,222.168,456.052,222.666,456.052,223.282z"/>
					</g>
					<rect x="457.851" y="271.954" style="fill:#ECF0F1;" width="83.696" height="1.785"/>
					<rect x="457.851" y="288.446" style="fill:#ECF0F1;" width="83.696" height="1.784"/>
					<rect x="457.851" y="295.726" style="fill:#ECF0F1;" width="83.696" height="1.784"/>
					<rect x="457.851" y="303.005" style="fill:#ECF0F1;" width="83.696" height="1.785"/>
					<rect x="485.702" y="273.738" style="fill:#ECF0F1;" width="1.932" height="14.708"/>
					<rect x="513.072" y="273.738" style="fill:#ECF0F1;" width="1.933" height="14.708"/>
				</g>
			</g>
		</g>
	</g>
	<g>
		<rect x="208.212" y="164.233" style="fill:#F39C11;" width="188.294" height="188.294"/>
		
			<linearGradient id="SVGID_00000101092194539065865160000017923920214350449030_" gradientUnits="userSpaceOnUse" x1="284.7514" y1="247.0425" x2="405.3301" y2="319.8974">
			<stop  offset="0" style="stop-color:#B6750D"/>
			<stop  offset="0.2549" style="stop-color:#C67F0E"/>
			<stop  offset="1" style="stop-color:#F39C11"/>
		</linearGradient>
		<polygon style="fill:url(#SVGID_00000101092194539065865160000017923920214350449030_);" points="396.506,212.693 
			396.506,352.526 291.531,352.526 255.626,331.318 345.103,183.015 		"/>
		<g>
			<defs>
				
					<ellipse id="SVGID_00000036239395009671990990000007760803426681613234_" transform="matrix(0.7071 -0.7071 0.7071 0.7071 -94.1429 289.4782)" cx="302.36" cy="258.38" rx="86.616" ry="86.615"/>
			</defs>
			<use xlink:href="#SVGID_00000036239395009671990990000007760803426681613234_"  style="overflow:visible;fill:#E4F1FE;"/>
			<clipPath id="SVGID_00000079452178227004064220000011276907728135745436_">
				<use xlink:href="#SVGID_00000036239395009671990990000007760803426681613234_"  style="overflow:visible;"/>
			</clipPath>
			<g style="clip-path:url(#SVGID_00000079452178227004064220000011276907728135745436_);">
				
					<linearGradient id="SVGID_00000106135287362896019470000015371735394295284869_" gradientUnits="userSpaceOnUse" x1="284.0046" y1="242.9848" x2="398.9262" y2="316.6858">
					<stop  offset="0" style="stop-color:#ABB5BF"/>
					<stop  offset="1" style="stop-color:#E4F1FE"/>
				</linearGradient>
				<polygon style="fill:url(#SVGID_00000106135287362896019470000015371735394295284869_);" points="394.101,227.568 
					386.213,329.681 321.165,349.488 268.78,319.245 303.865,289.731 257.577,263.181 263.948,250.471 267.431,198.132 
					280.267,206.16 338.009,202.269 343.115,198.132 				"/>
				<g>
					<path style="fill:#59433D;" d="M268.472,254.13c0,1.343-1.099,2.441-2.441,2.441h-2.705c-1.342,0-2.44-1.098-2.44-2.441
						v-54.174c0-1.342,1.098-2.441,2.44-2.441h2.705c1.343,0,2.441,1.099,2.441,2.441V254.13z"/>
					<path style="fill:#59433D;" d="M343.97,254.13c0,1.343-1.099,2.441-2.441,2.441h-2.705c-1.343,0-2.441-1.098-2.441-2.441
						v-54.174c0-1.342,1.099-2.441,2.441-2.441h2.705c1.342,0,2.441,1.099,2.441,2.441V254.13z"/>
					<path style="fill:#132A2E;" d="M347.44,228.654c0,1.342-1.098,2.441-2.441,2.441H259.72c-1.343,0-2.441-1.099-2.441-2.441
						v-24.953c0-1.342,1.098-2.441,2.441-2.441h85.278c1.343,0,2.441,1.099,2.441,2.441V228.654z"/>
					<path style="fill:#59433D;" d="M336.171,318.698c0.333,0.3,0.237,0.547-0.21,0.547h-4.663c-0.447,0-1.085-0.247-1.416-0.547
						l-26.706-24.216c-0.332-0.301-0.875-0.792-1.206-1.094l-40.345-36.584c-0.332-0.301-0.332-0.792,0.001-1.093l1.937-1.753
						c0.333-0.3,0.875-0.299,1.207,0.001l37.158,33.694c0.331,0.301,0.874,0.792,1.207,1.093l1.98,1.79
						c0.332,0.3,0.875,0.792,1.207,1.093L336.171,318.698z"/>
					<path style="fill:#59433D;" d="M343.497,255.734c0.332,0.301,0.332,0.793,0,1.094l-37.175,33.709
						c-0.332,0.301-0.874,0.793-1.206,1.093l-1.939,1.758c-0.332,0.301-0.875,0.792-1.206,1.094l-26.706,24.216
						c-0.332,0.3-0.969,0.547-1.417,0.547h-4.74c-0.448,0-0.542-0.247-0.21-0.547l29.893-27.099c0.331-0.3,0.874-0.793,1.205-1.094
						l1.932-1.757c0.332-0.301,0.874-0.793,1.205-1.094l37.185-33.716c0.332-0.301,0.874-0.3,1.204,0.001L343.497,255.734z"/>
					<path style="fill:#132A2E;" d="M344.581,254.792c-0.336-0.831-1.345-1.509-2.239-1.509h-79.83
						c-0.894,0-1.911,0.675-2.259,1.499l-2.342,5.552c-0.348,0.825-0.632,1.884-0.632,2.356c0,0.47,0.732,0.855,1.627,0.855h86.907
						c0.895,0,1.627-0.385,1.627-0.855c0-0.472-0.275-1.535-0.612-2.365L344.581,254.792z"/>
					<rect x="291.792" y="278.457" style="fill:#59433D;" width="22.96" height="1.653"/>
					<rect x="286.899" y="275.215" style="fill:#59433D;" width="32.744" height="1.653"/>
					<rect x="271.522" y="209.785" style="fill:#528B95;" width="61.675" height="12.787"/>
				</g>
			</g>
		</g>
	</g>
	<g>
		<rect x="11.932" y="164.233" style="fill:#49B5B0;" width="188.294" height="188.294"/>
		
			<linearGradient id="SVGID_00000182516729643711809360000007130271535368079772_" gradientUnits="userSpaceOnUse" x1="98.4257" y1="249.541" x2="213.127" y2="331.7067">
			<stop  offset="0" style="stop-color:#378884"/>
			<stop  offset="0.0073" style="stop-color:#378884"/>
			<stop  offset="1" style="stop-color:#49B5B0"/>
		</linearGradient>
		<polygon style="fill:url(#SVGID_00000182516729643711809360000007130271535368079772_);" points="200.226,212.693 
			200.226,352.526 95.25,352.526 59.345,331.318 148.822,183.015 		"/>
		<g>
			<defs>
				
					<ellipse id="SVGID_00000034053753020815032860000009402392568258136507_" transform="matrix(0.7071 -0.7071 0.7071 0.7071 -151.6322 150.6867)" cx="106.079" cy="258.38" rx="86.616" ry="86.615"/>
			</defs>
			<use xlink:href="#SVGID_00000034053753020815032860000009402392568258136507_"  style="overflow:visible;fill:#FCEEEC;"/>
			<clipPath id="SVGID_00000060738211061829626460000017022815485218792883_">
				<use xlink:href="#SVGID_00000034053753020815032860000009402392568258136507_"  style="overflow:visible;"/>
			</clipPath>
			<g style="clip-path:url(#SVGID_00000060738211061829626460000017022815485218792883_);">
				
					<linearGradient id="SVGID_00000078755464606056083520000016950728159048745647_" gradientUnits="userSpaceOnUse" x1="78.1027" y1="246.5913" x2="203.689" y2="322.0464">
					<stop  offset="0" style="stop-color:#BDB3B1"/>
					<stop  offset="0.2771" style="stop-color:#CFC4C2"/>
					<stop  offset="1" style="stop-color:#FCEEEC"/>
				</linearGradient>
				<polygon style="fill:url(#SVGID_00000078755464606056083520000016950728159048745647_);" points="196.902,261.882 
					185.162,326.668 143.184,340.89 105.267,318.999 125.281,296.667 50.391,254.803 77.896,194.534 151.024,236.754 
					155.694,238.091 				"/>
				<g>
					<polygon style="fill:#336E7B;" points="74.541,194.007 63.349,224.203 63.311,224.307 52.118,254.503 116.733,257.164 
						120.988,245.685 121.026,245.581 125.281,234.102 					"/>
					<path style="fill:#0D1C1F;" d="M51.171,253.589c-0.284,0.766,0.11,1.624,0.875,1.907l2.044,0.758
						c0.765,0.283,1.623-0.111,1.907-0.876l22.057-59.508c0.283-0.765-0.111-1.623-0.876-1.906l-2.044-0.758
						c-0.765-0.283-1.623,0.11-1.907,0.876L51.171,253.589z"/>
					<path style="fill:#336E7B;" d="M154.246,269.426c-0.115,0.308-0.46,0.466-0.768,0.352l-6.52-2.416
						c-0.308-0.115-0.467-0.46-0.352-0.768l7.477-20.174c0.114-0.308,0.459-0.467,0.768-0.352l6.521,2.417
						c0.308,0.115,0.466,0.459,0.352,0.768L154.246,269.426z"/>
					<path style="fill:#C0392B;" d="M155.101,237.746c1.094,0.405,1.657,1.633,1.252,2.727l-11.902,32.111
						c-0.406,1.095-0.857,1.946-1.002,1.892c-0.146-0.053-1.202,0.086-2.347,0.311c0,0-6.717,1.32-7.75,4.222
						c-4.573,12.871-0.929,14.208-3.5,27.529c-2.012,10.442-7.883,16.608-7.883,16.608c-0.805,0.846-2.359,1.205-3.453,0.799
						L107,319.678c-1.095-0.406-1.331-1.428-0.524-2.272c0,0,5.309-5.561,6.671-12.636c2.569-13.317,0.697-13.343,3.266-26.661
						c1.18-6.116,4.771-9.814,4.771-9.814c0.813-0.837,0.582-1.855-0.512-2.26l-16.529-6.126c-1.095-0.406-1.658-1.633-1.252-2.728
						l11.902-32.112c0.406-1.095,1.633-1.658,2.727-1.252L155.101,237.746z"/>
					<path style="fill:#1A373E;" d="M49.886,253.323c-0.247,0.664,0.096,1.408,0.759,1.653l1.217,0.452
						c0.664,0.246,1.409-0.096,1.654-0.759l22.194-59.877c0.245-0.664-0.096-1.408-0.76-1.653l-1.218-0.452
						c-0.663-0.246-1.407,0.096-1.653,0.759L49.886,253.323z"/>
					<path style="fill:#1A373E;" d="M133.351,279.01c-4.573,12.871-0.865,14.219-3.5,27.529
						c-2.308,11.658-7.918,17.803-7.918,17.803c-0.327,0.358-0.967,0.513-1.423,0.345l-15.029-5.571
						c-0.455-0.168-0.543-0.584-0.196-0.923c0,0,6.499-6.348,7.862-13.423c2.569-13.317,0.697-13.343,3.266-26.661
						c0.995-5.154,3.104-7.837,5.041-10.134c0.361-0.428,0.011-1.041,0.011-1.041c-0.24-0.421-0.064-0.629,0.391-0.46l20.5,7.599
						c0.455,0.169,0.438,0.383-0.038,0.477C142.318,274.549,134.384,276.108,133.351,279.01z"/>
				</g>
			</g>
		</g>
	</g>
	<g>
		<g>
			<rect x="404.493" y="378.211" style="fill:#49B5B0;" width="188.295" height="188.294"/>
			
				<linearGradient id="SVGID_00000183216677875329149670000003925399058728903325_" gradientUnits="userSpaceOnUse" x1="490.9872" y1="463.519" x2="605.6895" y2="545.6853">
				<stop  offset="0" style="stop-color:#378884"/>
				<stop  offset="0.0073" style="stop-color:#378884"/>
				<stop  offset="1" style="stop-color:#49B5B0"/>
			</linearGradient>
			<polygon style="fill:url(#SVGID_00000183216677875329149670000003925399058728903325_);" points="592.788,426.671 
				592.788,566.505 487.81,566.505 451.907,545.297 541.383,396.993 			"/>
		</g>
		<g>
			<defs>
				<path id="SVGID_00000045598385714076899780000000670782456357773207_" d="M585.256,472.357
					c0,47.837-38.779,86.616-86.616,86.616c-47.836,0-86.614-38.779-86.614-86.616c0-47.836,38.778-86.614,86.614-86.614
					C546.477,385.743,585.256,424.522,585.256,472.357z"/>
			</defs>
			<use xlink:href="#SVGID_00000045598385714076899780000000670782456357773207_"  style="overflow:visible;fill:#FCEEEC;"/>
			<clipPath id="SVGID_00000121251250921463197680000018023737928626020498_">
				<use xlink:href="#SVGID_00000045598385714076899780000000670782456357773207_"  style="overflow:visible;"/>
			</clipPath>
			<g style="clip-path:url(#SVGID_00000121251250921463197680000018023737928626020498_);">
				
					<linearGradient id="SVGID_00000049223151632463534170000009523144105046964636_" gradientUnits="userSpaceOnUse" x1="463.052" y1="452.0557" x2="602.4153" y2="532.3123">
					<stop  offset="0" style="stop-color:#BDB3B1"/>
					<stop  offset="0.328" style="stop-color:#CEC3C1"/>
					<stop  offset="0.9758" style="stop-color:#FAECEA"/>
					<stop  offset="1" style="stop-color:#FCEEEC"/>
				</linearGradient>
				<polygon style="fill:url(#SVGID_00000049223151632463534170000009523144105046964636_);" points="589.729,444.019 
					585.256,549.441 510.861,560.627 428.908,513.312 456.211,502.234 493.243,471.228 488.097,451.231 503.535,420.641 
					554.813,423.86 				"/>
				<g>
					<path style="fill:#132A2E;" d="M529.418,461.303c1.037-1.137,4.094-2.99,6.105-4.478c-0.697,1.245-1.449,2.605-2.035,2.858
						C532.057,460.305,530.704,460.842,529.418,461.303z"/>
					<path style="fill:#132A2E;" d="M537.354,454.803c0.195,0.388-0.634,1.144-1.83,2.022
						C536.31,455.42,537.03,454.156,537.354,454.803z"/>
					<g>
						<path style="fill:#132A2E;" d="M537.758,466.719c-19.375,11.358-25.118,0.763-45.138,10.921
							c-20.021,10.16-15.206,19.711-35.228,29.875c-13.49,6.845-27.419,6.243-27.419,6.243c-0.644-0.026-1.384-0.53-1.647-1.117
							l-2.762-6.152c-0.264-0.587,0.046-1.022,0.686-0.965c0,0,14.435,1.271,27.454-5.337c20.021-10.16,15.208-19.711,35.228-29.873
							c18.626-9.454,39.317-9.034,39.317-9.034c0.644,0.013,0.979,0.284,0.748,0.604c0,0,0,0,0.09,0.183
							C529.703,463.286,538.928,466.03,537.758,466.719z"/>
						<path style="fill:#132A2E;" d="M542.067,445.995c4.359,9.712,0.063,21.123-9.595,25.486
							c-9.656,4.361-21.019,0.024-25.378-9.688c-4.358-9.712-0.063-21.123,9.594-25.486
							C526.347,431.943,537.708,436.281,542.067,445.995z"/>
					</g>
					<g>
						<g>
							<path style="fill:#1C3E45;" d="M507.077,414.887c-21.421,9.679-30.947,34.986-21.28,56.529
								c9.669,21.543,34.87,31.162,56.289,21.483c21.419-9.676,30.945-34.985,21.278-56.526
								C553.698,414.83,528.497,405.211,507.077,414.887z M540.595,489.577c-19.596,8.853-42.648,0.053-51.493-19.654
								c-8.844-19.707-0.128-42.86,19.467-51.713c19.594-8.853,42.649-0.053,51.493,19.654
								C568.904,457.573,560.188,480.725,540.595,489.577z"/>
							<path style="fill:#336E7B;" d="M507.86,416.636c-20.458,9.245-29.557,33.418-20.323,53.994
								c9.232,20.577,33.305,29.766,53.764,20.521c20.458-9.243,29.56-33.416,20.325-53.994
								C552.392,416.581,528.32,407.394,507.86,416.636z M530.897,427.883c3.219-4.493,7.949-3.401,12.426-0.16
								c4.478,3.243,7.008,7.408,3.789,11.902c-3.219,4.495-13.776,11.539-18.254,8.298
								C524.38,444.68,527.68,432.378,530.897,427.883z M511.371,424.456c5.026-2.271,9.877-2.382,12.144,2.673
								c2.268,5.056,3.077,17.776-1.948,20.049c-5.026,2.271-13.984-6.771-16.253-11.826
								C503.045,430.297,506.345,426.728,511.371,424.456z M492.629,450.628c0.547-5.514,2.868-9.79,8.355-9.23
								c5.487,0.562,16.854,6.238,16.305,11.751c-0.547,5.514-12.804,8.775-18.291,8.214
								C493.511,460.802,492.079,456.141,492.629,450.628z M518.264,479.905c-3.217,4.494-7.949,3.402-12.426,0.159
								c-4.478-3.242-7.006-7.407-3.788-11.901c3.219-4.494,13.777-11.541,18.255-8.297
								C524.782,463.107,521.483,475.411,518.264,479.905z M537.792,483.331c-5.025,2.271-9.877,2.383-12.146-2.673
								c-2.268-5.054-3.076-17.777,1.95-20.047c5.024-2.271,13.983,6.771,16.251,11.824
								C546.116,477.492,542.818,481.061,537.792,483.331z M556.535,457.161c-0.549,5.513-2.871,9.79-8.357,9.228
								c-5.488-0.56-16.854-6.236-16.307-11.75c0.55-5.515,12.806-8.774,18.293-8.215
								C555.65,446.987,557.083,451.647,556.535,457.161z"/>
							<path style="fill:#26535C;" d="M507.768,416.427c-20.574,9.295-29.725,33.605-20.44,54.298
								c9.286,20.693,33.494,29.933,54.068,20.637c20.575-9.296,29.726-33.606,20.44-54.298
								C552.548,416.371,528.342,407.131,507.768,416.427z M539.962,488.17c-18.821,8.504-40.967,0.051-49.46-18.879
								c-8.495-18.931-0.125-41.169,18.697-49.672c18.821-8.504,40.967-0.052,49.462,18.878
								C567.155,457.428,558.785,479.667,539.962,488.17z"/>
						</g>
						<g>
							<path style="fill:#96281B;" d="M528.133,452.289c0.887,1.974,0.013,4.291-1.948,5.178c-1.963,0.886-4.27,0.005-5.155-1.969
								c-0.885-1.972-0.014-4.29,1.949-5.176C524.94,449.436,527.247,450.315,528.133,452.289z"/>
							<path style="fill:#132A2E;" d="M524.512,451.545c0.204,0.456,0.004,0.99-0.448,1.194c-0.453,0.205-0.985,0.002-1.188-0.453
								c-0.205-0.456-0.004-0.991,0.448-1.195C523.776,450.887,524.308,451.09,524.512,451.545z"/>
							<path style="fill:#132A2E;" d="M522.522,452.775c0.495,0.05,0.856,0.493,0.806,0.991c-0.05,0.496-0.489,0.857-0.984,0.807
								c-0.494-0.05-0.854-0.493-0.805-0.99C521.589,453.086,522.029,452.725,522.522,452.775z"/>
							<path style="fill:#132A2E;" d="M522.593,455.124c0.288-0.404,0.851-0.496,1.253-0.203c0.404,0.292,0.497,0.856,0.207,1.261
								c-0.291,0.405-0.852,0.495-1.256,0.204C522.394,456.094,522.302,455.529,522.593,455.124z"/>
							<path style="fill:#132A2E;" d="M524.649,456.244c-0.204-0.456-0.003-0.991,0.45-1.195c0.451-0.206,0.985-0.002,1.189,0.453
								c0.204,0.455,0.004,0.989-0.449,1.195C525.386,456.901,524.854,456.697,524.649,456.244z"/>
							<path style="fill:#132A2E;" d="M526.64,455.013c-0.495-0.051-0.854-0.494-0.806-0.99c0.049-0.496,0.49-0.858,0.983-0.809
								c0.494,0.052,0.856,0.495,0.806,0.99C527.575,454.701,527.133,455.063,526.64,455.013z"/>
							<path style="fill:#132A2E;" d="M526.571,452.663c-0.289,0.406-0.852,0.496-1.256,0.204c-0.402-0.291-0.495-0.855-0.204-1.262
								c0.288-0.403,0.852-0.495,1.255-0.204C526.769,451.694,526.861,452.26,526.571,452.663z"/>
						</g>
					</g>
				</g>
			</g>
		</g>
	</g>
	<g>
		<g>
			<rect x="600.774" y="378.211" style="fill:#7A6964;" width="188.293" height="188.294"/>
			
				<linearGradient id="SVGID_00000000199249132710934300000009422423815999927189_" gradientUnits="userSpaceOnUse" x1="675.4495" y1="453.9039" x2="788.9128" y2="537.7699">
				<stop  offset="0" style="stop-color:#5C4F4B"/>
				<stop  offset="1" style="stop-color:#7A6964"/>
			</linearGradient>
			<polygon style="fill:url(#SVGID_00000000199249132710934300000009422423815999927189_);" points="789.067,426.671 
				789.067,566.505 684.093,566.505 648.325,545.068 737.664,396.993 			"/>
		</g>
		<g>
			<defs>
				<path id="SVGID_00000178892091693681340100000014390371165872971951_" d="M781.537,472.357c0,47.63-38.78,86.24-86.616,86.24
					s-86.615-38.61-86.615-86.24c0-47.626,38.779-86.238,86.615-86.238S781.537,424.731,781.537,472.357z"/>
			</defs>
			<use xlink:href="#SVGID_00000178892091693681340100000014390371165872971951_"  style="overflow:visible;fill:#C7EBE3;"/>
			<clipPath id="SVGID_00000136382571479286939130000016658662383148427916_">
				<use xlink:href="#SVGID_00000178892091693681340100000014390371165872971951_"  style="overflow:visible;"/>
			</clipPath>
			<g style="clip-path:url(#SVGID_00000136382571479286939130000016658662383148427916_);">
				
					<linearGradient id="SVGID_00000093137156070370790240000009233644462529440155_" gradientUnits="userSpaceOnUse" x1="672.7097" y1="459.5861" x2="798.4882" y2="532.1341">
					<stop  offset="0" style="stop-color:#95B0AA"/>
					<stop  offset="0.2391" style="stop-color:#9BB8B1"/>
					<stop  offset="0.6007" style="stop-color:#ADCCC5"/>
					<stop  offset="1" style="stop-color:#C7EBE3"/>
				</linearGradient>
				<polygon style="fill:url(#SVGID_00000093137156070370790240000009233644462529440155_);" points="785,449.735 785,541.696 
					717.281,559.932 639.798,515.194 750.601,429.876 				"/>
				<g>
					<g>
						<g>
							<path style="fill:#132A2E;" d="M751.726,511.935c0,2.155-1.621,3.919-3.601,3.919H641.717c-1.981,0-3.6-1.764-3.6-3.919
								v-79.152c0-2.155,1.619-3.919,3.6-3.919h106.408c1.979,0,3.601,1.764,3.601,3.919V511.935z"/>
						</g>
						<g>
							<path style="fill:#49656A;" d="M744.996,437.935v68.847c0,2.156-1.621,3.919-3.601,3.919h-92.949
								c-1.979,0-3.6-1.763-3.6-3.919v-68.847c0-2.155,1.621-3.919,3.6-3.919h92.949
								C743.375,434.016,744.996,435.779,744.996,437.935z"/>
						</g>
						<g>
							<g>
								<rect x="694.742" y="434.016" style="fill:#132A2E;" width="0.358" height="76.685"/>
							</g>
						</g>
						<g>
							<g>
								<rect x="644.847" y="472.163" style="fill:#132A2E;" width="100.149" height="0.392"/>
							</g>
						</g>
						<g>
							<polygon style="fill:#132A2E;" points="695.523,472.357 695.523,473.029 694.921,473.576 654.267,510.7 652.398,510.7 
								694.169,472.555 694.384,472.357 							"/>
						</g>
						<g>
							<path style="fill:#6D8488;" d="M694.169,472.652l0.108-0.098h-49.431v34.227c0,2.156,1.621,3.919,3.6,3.919h4.06
								L694.169,472.652z"/>
						</g>
						<path style="fill:#6D8488;" d="M694.742,434.016v38.147h-49.896v-34.228c0-2.155,1.613-3.919,3.587-3.919H694.742z"/>
						<g>
							<rect x="694.32" y="434.016" style="fill:#132A2E;" width="1.201" height="38.539"/>
						</g>
						<g>
							<path style="fill:#ECF0F1;" d="M694.921,500.612c-14.315,0-25.962-12.675-25.962-28.255
								c0-15.579,11.646-28.253,25.962-28.253c14.316,0,25.962,12.674,25.962,28.253
								C720.883,487.938,709.237,500.612,694.921,500.612z M694.921,444.496c-14.117,0-25.603,12.499-25.603,27.861
								c0,15.365,11.485,27.862,25.603,27.862c14.118,0,25.602-12.497,25.602-27.862
								C720.522,456.995,709.039,444.496,694.921,444.496z"/>
						</g>
						<g>
							<path style="fill:#ECF0F1;" d="M694.921,504.924c-16.499,0-29.923-14.609-29.923-32.566
								c0-17.956,13.424-32.563,29.923-32.563c16.5,0,29.923,14.607,29.923,32.563C724.844,490.315,711.421,504.924,694.921,504.924
								z M694.921,440.185c-16.301,0-29.563,14.433-29.563,32.172c0,17.741,13.262,32.173,29.563,32.173
								c16.302,0,29.563-14.432,29.563-32.173C724.483,454.618,711.223,440.185,694.921,440.185z"/>
						</g>
					</g>
					<g id="_x32__-_Archivo_Black_Regular">
						<path style="fill:#0E2023;" d="M707.966,462.746c0,7.005-7.1,10.438-13.776,15.232h14.152v7.946h-26.801v-2.257
							c0-3.526,1.882-6.019,4.514-8.369c7.334-6.535,12.602-9.168,12.602-12.225c0-1.787-1.176-3.433-4.044-3.433
							c-2.915,0-4.562,1.881-4.562,4.421v0.939h-8.369c-0.047-0.376-0.047-0.705-0.047-1.034c0-6.628,4.608-10.954,13.871-10.954
							C703.17,453.013,707.966,456.867,707.966,462.746z"/>
					</g>
				</g>
			</g>
		</g>
	</g>
	<g>
		<rect x="600.774" y="592.288" style="fill:#49B5B0;" width="188.293" height="188.293"/>
		
			<linearGradient id="SVGID_00000090258765020476706860000016431092669458006664_" gradientUnits="userSpaceOnUse" x1="675.3705" y1="668.0859" x2="788.8343" y2="751.9522">
			<stop  offset="0" style="stop-color:#378884"/>
			<stop  offset="0.0073" style="stop-color:#378884"/>
			<stop  offset="1" style="stop-color:#49B5B0"/>
		</linearGradient>
		<polygon style="fill:url(#SVGID_00000090258765020476706860000016431092669458006664_);" points="789.067,640.746 
			789.067,780.581 684.093,780.581 648.188,759.372 737.664,611.068 		"/>
		<g>
			<defs>
				
					<ellipse id="SVGID_00000020391255106495670830000018284576936206022333_" transform="matrix(0.9754 -0.2203 0.2203 0.9754 -134.1272 169.9209)" cx="694.921" cy="686.434" rx="86.615" ry="86.615"/>
			</defs>
			<use xlink:href="#SVGID_00000020391255106495670830000018284576936206022333_"  style="overflow:visible;fill:#FCEEEC;"/>
			<clipPath id="SVGID_00000061465342579001334250000018256657049426607030_">
				<use xlink:href="#SVGID_00000020391255106495670830000018284576936206022333_"  style="overflow:visible;"/>
			</clipPath>
			<g style="clip-path:url(#SVGID_00000061465342579001334250000018256657049426607030_);">
				
					<linearGradient id="SVGID_00000036245740146025352370000004459302383199682727_" gradientUnits="userSpaceOnUse" x1="667.7789" y1="670.1661" x2="805.938" y2="750.5786">
					<stop  offset="0" style="stop-color:#BDB3B1"/>
					<stop  offset="0.2567" style="stop-color:#D1C5C3"/>
					<stop  offset="0.7343" style="stop-color:#F0E3E1"/>
					<stop  offset="1" style="stop-color:#FCEEEC"/>
				</linearGradient>
				<polygon style="fill:url(#SVGID_00000036245740146025352370000004459302383199682727_);" points="785.968,683.298 
					781.537,732.002 743.586,769.412 630.003,703.837 633.88,697.981 626.111,693.496 761.933,669.422 				"/>
				<g>
					<path style="fill:#91B5BB;" d="M762.904,679.06h-0.869v-8.833c0-1.113-0.911-2.025-2.025-2.025H629.825
						c-1.113,0-2.026,0.912-2.026,2.025v8.833h-0.86c-0.829,0-1.506,0.677-1.506,1.507v11.674c0,0.828,0.677,1.507,1.506,1.507h0.86
						v3.918c0,1.116,0,2.207,0,2.43c0,0.221,0,0.43,0,0.463c0,0.032,0.375,0.891,0.832,1.905l1.372,1.374
						c1.017,0.456,2.76,0.831,3.874,0.831h46.725c1.115,0,2.698-0.214,3.523-0.473c0.822-0.26,2.186-1.832,2.23-1.829
						c0.045,0.001,0.502-0.806,1.019-1.793c0,0,4.475-8.551,7.503-8.582c2.68-0.027,7.479,8.184,7.479,8.184
						c0.561,0.962,1.485,2.366,2.051,3.12c0.566,0.756,3.711,1.373,4.825,1.373h46.727c1.114,0,2.856-0.375,3.872-0.831l1.372-1.374
						c0.459-1.015,0.832-1.873,0.832-1.905c0-0.033,0-0.242,0-0.463c0-0.223,0-1.313,0-2.43v-3.918h0.869
						c0.829,0,1.505-0.679,1.505-1.507v-11.674C764.409,679.736,763.733,679.06,762.904,679.06z"/>
					<g>
						<path style="fill:#902B20;" d="M678.711,693.424c0,2.69-2.2,4.894-4.891,4.894h-28.3c-2.689,0-4.893-2.203-4.893-4.894
							v-12.586c0-2.691,2.203-4.892,4.893-4.892h28.3c2.69,0,4.891,2.2,4.891,4.892V693.424z"/>
						<path style="fill:#26535C;" d="M750.018,693.424c0,2.69-2.202,4.894-4.895,4.894h-28.297c-2.69,0-4.893-2.203-4.893-4.894
							v-12.586c0-2.691,2.202-4.892,4.893-4.892h28.297c2.692,0,4.895,2.2,4.895,4.892V693.424z"/>
						<path style="fill:#49656A;" d="M760.494,671.273c0.849,0,1.541-0.69,1.541-1.537c0-0.845-0.692-1.535-1.541-1.535H629.342
							c-0.849,0-1.543,0.69-1.543,1.535c0,0.847,0.694,1.537,1.543,1.537H760.494z"/>
					</g>
				</g>
			</g>
		</g>
	</g>
	<g>
		<rect x="600.774" y="164.161" style="fill:#F39C11;" width="188.293" height="188.294"/>
		
			<linearGradient id="SVGID_00000065760436382035415200000016270070795241307023_" gradientUnits="userSpaceOnUse" x1="687.2677" y1="249.4687" x2="801.9691" y2="331.6345">
			<stop  offset="0" style="stop-color:#7D5515"/>
			<stop  offset="0.5971" style="stop-color:#C68113"/>
			<stop  offset="1" style="stop-color:#F39C11"/>
		</linearGradient>
		<polygon style="fill:url(#SVGID_00000065760436382035415200000016270070795241307023_);" points="789.067,212.62 789.067,352.455 
			684.093,352.455 648.188,331.246 737.664,182.942 		"/>
		<g>
			<g>
				
					<ellipse transform="matrix(0.9974 -0.0718 0.0718 0.9974 -16.7472 50.5425)" style="fill:#E4F1FE;" cx="694.921" cy="258.308" rx="86.615" ry="86.615"/>
			</g>
			<g>
				<defs>
					
						<ellipse id="SVGID_00000141434570784530733070000013498911364028089227_" transform="matrix(0.9974 -0.0718 0.0718 0.9974 -16.7472 50.5425)" cx="694.921" cy="258.308" rx="86.615" ry="86.615"/>
				</defs>
				<clipPath id="SVGID_00000050645670149435926320000012866989431525344649_">
					<use xlink:href="#SVGID_00000141434570784530733070000013498911364028089227_"  style="overflow:visible;"/>
				</clipPath>
				
					<linearGradient id="SVGID_00000086668362072166172060000011198275379072149383_" gradientUnits="userSpaceOnUse" x1="684.6216" y1="251.6345" x2="795.7893" y2="308.3245">
					<stop  offset="0" style="stop-color:#ABB5BF"/>
					<stop  offset="0.6141" style="stop-color:#D1DDE9"/>
					<stop  offset="1" style="stop-color:#E4F1FE"/>
				</linearGradient>
				
					<polygon style="clip-path:url(#SVGID_00000050645670149435926320000012866989431525344649_);fill:url(#SVGID_00000086668362072166172060000011198275379072149383_);" points="
					786.246,228.352 776.745,321.9 715.946,346.314 668.283,318.794 666.745,250.481 661.458,247.428 690.233,247.43 
					696.423,205.849 696.833,203.042 698.396,202.085 732.849,197.523 				"/>
				<g style="clip-path:url(#SVGID_00000050645670149435926320000012866989431525344649_);">
					<g>
						<g>
							<g>
								<path style="fill:#528B95;" d="M695.152,248.891c-0.885,0-1.643,0-1.685,0c-0.041,0-0.799,0-1.684,0H665.06
									c-0.887,0-1.566,0.722-1.513,1.607l4.04,67.007c0.054,0.883,0.822,1.605,1.706,1.605h22.489c0.885,0,1.643,0,1.684,0
									c0.042,0,0.801,0,1.685,0h22.49c0.884,0,1.652-0.722,1.706-1.605l4.04-67.007c0.053-0.884-0.627-1.607-1.513-1.607H695.152z
									"/>
								<g>
									<g>
										<path style="fill:#F39C11;" d="M711.78,284c0,9.5-8.199,17.201-18.313,17.201c-10.111,0-18.31-7.701-18.31-17.201
											c0-9.5,8.199-17.202,18.31-17.202C703.581,266.799,711.78,274.5,711.78,284z"/>
									</g>
									<g>
										<path style="fill:#FFFFFF;" d="M706.492,284c0,6.758-5.83,12.235-13.025,12.235c-7.192,0-13.024-5.478-13.024-12.235
											c0-6.758,5.832-12.235,13.024-12.235C700.662,271.765,706.492,277.242,706.492,284z"/>
									</g>
								</g>
							</g>
							<path style="fill:#29464B;" d="M726.37,247.559c0,0.975-0.987,1.774-2.196,1.774h-61.316c-1.207,0-2.196-0.799-2.196-1.774
								s0.989-1.774,2.196-1.774h61.316C725.383,245.785,726.37,246.584,726.37,247.559z"/>
						</g>
					</g>
					<polygon style="fill:#902B20;" points="732.827,197.505 699.435,200.506 697.177,200.71 697.109,200.715 697.139,200.97 
						696.775,203.436 696.165,207.615 690.547,245.83 693.105,245.83 698.396,209.685 699.006,205.503 699.401,202.784 
						733.076,199.758 					"/>
				</g>
			</g>
		</g>
	</g>
	<g>
		<g>
			<rect x="208.212" y="378.235" style="fill:#7A6964;" width="188.294" height="188.295"/>
			
				<linearGradient id="SVGID_00000107574277682046784180000000497771245701391745_" gradientUnits="userSpaceOnUse" x1="282.809" y1="454.0338" x2="396.2736" y2="537.9006">
				<stop  offset="0" style="stop-color:#5C4F4B"/>
				<stop  offset="1" style="stop-color:#7A6964"/>
			</linearGradient>
			<polygon style="fill:url(#SVGID_00000107574277682046784180000000497771245701391745_);" points="396.506,426.694 
				396.506,566.53 291.531,566.53 255.626,545.32 345.103,397.017 			"/>
		</g>
		<g>
			<g>
				<defs>
					<path id="SVGID_00000106867395943599064590000014063710738037367724_" d="M388.975,472.381
						c0,47.837-38.779,86.615-86.615,86.615c-47.837,0-86.616-38.778-86.616-86.615c0-47.834,38.779-86.613,86.616-86.613
						C350.195,385.768,388.975,424.547,388.975,472.381z"/>
				</defs>
				<use xlink:href="#SVGID_00000106867395943599064590000014063710738037367724_"  style="overflow:visible;fill:#C7EBE3;"/>
				<clipPath id="SVGID_00000088095844542041209670000007084134076671729069_">
					<use xlink:href="#SVGID_00000106867395943599064590000014063710738037367724_"  style="overflow:visible;"/>
				</clipPath>
				<g style="clip-path:url(#SVGID_00000088095844542041209670000007084134076671729069_);">
					
						<linearGradient id="SVGID_00000054255466683774024340000013709469674211190460_" gradientUnits="userSpaceOnUse" x1="257.4909" y1="449.0553" x2="405.1026" y2="534.3239">
						<stop  offset="0" style="stop-color:#95B0AA"/>
						<stop  offset="0.231" style="stop-color:#A1BEB8"/>
						<stop  offset="1" style="stop-color:#C7EBE3"/>
					</linearGradient>
					<polygon style="fill:url(#SVGID_00000054255466683774024340000013709469674211190460_);" points="396.506,457.529 
						381.251,536.775 329.659,562.572 250.704,516.693 254.034,502.287 230.855,488.904 278.749,468.742 260.559,458.401 
						253.842,442.972 265.578,427.343 282.26,429.498 297.08,438.057 304.242,425.887 317.697,421.027 337.492,423.458 					"/>
					<g>
						<rect x="270.088" y="442.896" style="fill:#0E2023;" width="50.426" height="27.525"/>
						<path style="fill:#132A2E;" d="M339.815,469.116c1.063,0,1.934,0.87,1.934,1.933v44.252c0,1.064-0.871,1.935-1.934,1.935
							h-87.799c-1.064,0-1.934-0.87-1.934-1.935v-44.252c0-1.063,0.869-1.933,1.934-1.933H339.815z"/>
						<g>
							<path style="fill:#132A2E;" d="M331.564,439.306c1.571,6.061-2.131,12.229-8.269,13.782
								c-6.137,1.551-12.386-2.104-13.956-8.167c-1.571-6.059,2.131-12.229,8.268-13.78
								C323.745,429.59,329.993,433.245,331.564,439.306z"/>
							<g>
								<g>
									<path style="fill:#1C3E45;" d="M314.145,417.776c-13.611,3.439-21.823,17.124-18.339,30.566
										c3.483,13.441,17.342,21.549,30.953,18.109c13.611-3.439,21.822-17.125,18.338-30.566
										C341.613,422.444,327.756,414.335,314.145,417.776z M326.222,464.379c-12.453,3.146-25.13-4.272-28.317-16.567
										c-3.186-12.297,4.325-24.815,16.777-27.962c12.452-3.148,25.13,4.27,28.317,16.567
										C346.184,448.712,338.673,461.232,326.222,464.379z"/>
									<path style="fill:#336E7B;" d="M314.427,418.866c-13.001,3.286-20.844,16.358-17.516,29.197
										c3.327,12.838,16.564,20.583,29.566,17.299c13.001-3.288,20.844-16.358,17.516-29.197
										C340.665,423.325,327.428,415.582,314.427,418.866z M326.842,427.699c2.358-2.277,5.032-1.168,7.337,1.159
										c2.305,2.329,3.367,4.995,1.009,7.272c-2.357,2.275-9.301,5.288-11.605,2.959
										C321.278,436.762,324.485,429.976,326.842,427.699z M315.691,423.746c3.194-0.808,6.063-0.383,6.879,2.771
										c0.818,3.154-0.011,10.599-3.206,11.407c-3.194,0.806-7.543-5.329-8.36-8.483
										C310.187,426.286,312.498,424.553,315.691,423.746z M301.963,437.001c0.89-3.135,2.696-5.377,5.871-4.498
										c3.175,0.878,9.289,5.31,8.399,8.443c-0.889,3.136-8.444,3.788-11.619,2.909
										C301.439,442.978,301.074,440.136,301.963,437.001z M314.06,456.529c-2.357,2.276-5.031,1.168-7.336-1.161
										c-2.305-2.327-3.367-4.993-1.01-7.27c2.357-2.275,9.3-5.288,11.605-2.961C319.624,447.466,316.418,454.253,314.06,456.529z
										 M325.211,460.482c-3.193,0.807-6.063,0.382-6.88-2.772c-0.817-3.154,0.013-10.597,3.207-11.405
										c3.193-0.806,7.542,5.329,8.36,8.483C330.715,457.94,328.405,459.674,325.211,460.482z M338.939,447.228
										c-0.889,3.135-2.695,5.377-5.871,4.498c-3.174-0.878-9.288-5.31-8.398-8.445c0.889-3.134,8.444-3.786,11.618-2.907
										C339.464,441.251,339.828,444.092,338.939,447.228z"/>
									<path style="fill:#26535C;" d="M314.393,418.735c-13.075,3.305-20.961,16.45-17.615,29.362
										c3.346,12.91,16.657,20.699,29.732,17.396c13.074-3.307,20.961-16.45,17.615-29.362
										C340.779,423.22,327.467,415.432,314.393,418.735z M325.994,463.5c-11.961,3.024-24.139-4.103-27.2-15.913
										c-3.06-11.812,4.155-23.836,16.115-26.858c11.96-3.024,24.139,4.101,27.199,15.913
										C345.169,448.452,337.955,460.478,325.994,463.5z"/>
								</g>
								<g>
									<path style="fill:#96281B;" d="M322.708,441.544c0.319,1.231-0.433,2.483-1.679,2.799
										c-1.247,0.315-2.517-0.428-2.835-1.658c-0.319-1.232,0.433-2.483,1.68-2.799
										C321.121,439.57,322.389,440.314,322.708,441.544z"/>
									<path style="fill:#132A2E;" d="M320.652,440.748c0.073,0.284-0.1,0.573-0.388,0.647c-0.288,0.071-0.58-0.099-0.654-0.384
										c-0.073-0.284,0.1-0.572,0.388-0.646C320.286,440.293,320.579,440.465,320.652,440.748z"/>
									<path style="fill:#132A2E;" d="M319.354,441.259c0.286,0.079,0.453,0.373,0.373,0.655c-0.08,0.282-0.377,0.447-0.663,0.367
										c-0.285-0.079-0.452-0.372-0.373-0.654C318.771,441.345,319.067,441.181,319.354,441.259z"/>
									<path style="fill:#132A2E;" d="M319.152,442.625c0.213-0.204,0.553-0.201,0.76,0.008c0.208,0.211,0.205,0.547-0.008,0.752
										c-0.212,0.204-0.552,0.201-0.76-0.01C318.936,443.167,318.94,442.829,319.152,442.625z"/>
									<path style="fill:#132A2E;" d="M320.251,443.479c-0.075-0.283,0.1-0.572,0.388-0.645c0.287-0.073,0.58,0.099,0.653,0.383
										c0.075,0.283-0.1,0.573-0.387,0.647C320.617,443.935,320.324,443.764,320.251,443.479z"/>
									<path style="fill:#132A2E;" d="M321.549,442.969c-0.286-0.078-0.453-0.372-0.372-0.654c0.08-0.282,0.377-0.447,0.662-0.368
										c0.287,0.08,0.454,0.371,0.373,0.653C322.132,442.883,321.835,443.048,321.549,442.969z"/>
									<path style="fill:#132A2E;" d="M321.75,441.603c-0.212,0.204-0.553,0.201-0.761-0.01c-0.207-0.209-0.204-0.546,0.009-0.75
										c0.212-0.206,0.553-0.201,0.76,0.008C321.966,441.061,321.962,441.397,321.75,441.603z"/>
								</g>
							</g>
						</g>
						<g>
							<path style="fill:#132A2E;" d="M278.49,441.271c1.128,4.35-1.53,8.776-5.932,9.89c-4.404,1.112-8.888-1.51-10.014-5.859
								c-1.126-4.348,1.529-8.774,5.933-9.889C272.879,434.3,277.363,436.922,278.49,441.271z"/>
							<g>
								<g>
									<path style="fill:#1C3E45;" d="M265.991,425.823c-9.767,2.468-15.658,12.287-13.158,21.931
										c2.499,9.646,12.442,15.463,22.209,12.995c9.767-2.468,15.657-12.288,13.158-21.932
										C285.701,429.172,275.758,423.355,265.991,425.823z M274.657,459.261c-8.935,2.259-18.031-3.063-20.317-11.887
										c-2.286-8.822,3.102-17.806,12.037-20.063c8.934-2.259,18.031,3.064,20.317,11.887
										C288.98,448.022,283.591,457.003,274.657,459.261z"/>
									<path style="fill:#336E7B;" d="M266.194,426.605c-9.329,2.357-14.957,11.737-12.569,20.949
										c2.387,9.211,11.885,14.77,21.214,12.411c9.329-2.357,14.956-11.735,12.568-20.948
										C285.021,429.806,275.523,424.249,266.194,426.605z M275.102,432.942c1.692-1.633,3.611-0.838,5.264,0.833
										c1.654,1.671,2.416,3.583,0.725,5.217c-1.691,1.633-6.672,3.794-8.327,2.124
										C271.11,439.446,273.411,434.575,275.102,432.942z M267.101,430.106c2.292-0.579,4.35-0.274,4.936,1.989
										c0.586,2.263-0.008,7.604-2.3,8.184c-2.293,0.578-5.413-3.823-5.999-6.087C263.152,431.93,264.81,430.686,267.101,430.106z
										 M257.25,439.617c0.638-2.249,1.935-3.857,4.212-3.228c2.279,0.63,6.665,3.81,6.027,6.059
										c-0.638,2.25-6.059,2.718-8.337,2.088C256.875,443.906,256.613,441.867,257.25,439.617z M265.931,453.629
										c-1.691,1.634-3.611,0.838-5.264-0.833c-1.654-1.669-2.415-3.582-0.725-5.215c1.692-1.633,6.674-3.796,8.327-2.125
										C269.923,447.127,267.622,451.996,265.931,453.629z M273.932,456.465c-2.292,0.579-4.351,0.274-4.937-1.988
										c-0.586-2.262,0.009-7.604,2.301-8.185c2.292-0.578,5.412,3.824,5.998,6.088
										C277.88,454.644,276.224,455.887,273.932,456.465z M283.782,446.954c-0.638,2.249-1.935,3.858-4.212,3.228
										c-2.279-0.629-6.664-3.81-6.026-6.059c0.637-2.25,6.058-2.716,8.337-2.088C284.158,442.666,284.42,444.705,283.782,446.954
										z"/>
									<path style="fill:#26535C;" d="M266.169,426.512c-9.38,2.372-15.039,11.803-12.638,21.067
										c2.4,9.264,11.951,14.852,21.333,12.482c9.38-2.372,15.039-11.805,12.638-21.068
										C285.102,429.728,275.551,424.141,266.169,426.512z M274.493,458.631c-8.582,2.169-17.319-2.942-19.515-11.418
										c-2.197-8.476,2.98-17.103,11.563-19.271c8.582-2.17,17.319,2.943,19.515,11.417
										C288.252,447.834,283.075,456.462,274.493,458.631z"/>
								</g>
								<g>
									<path style="fill:#96281B;" d="M272.136,442.876c0.229,0.883-0.31,1.783-1.205,2.01c-0.895,0.226-1.805-0.308-2.035-1.19
										c-0.228-0.883,0.311-1.783,1.205-2.009C270.997,441.462,271.907,441.993,272.136,442.876z"/>
									<path style="fill:#132A2E;" d="M270.661,442.305c0.053,0.205-0.071,0.412-0.278,0.464c-0.206,0.053-0.417-0.07-0.469-0.274
										c-0.053-0.203,0.072-0.41,0.278-0.463C270.397,441.979,270.608,442.103,270.661,442.305z"/>
									<path style="fill:#132A2E;" d="M269.728,442.672c0.206,0.058,0.325,0.268,0.268,0.47c-0.058,0.203-0.271,0.321-0.476,0.265
										c-0.205-0.058-0.324-0.266-0.267-0.469C269.311,442.734,269.524,442.615,269.728,442.672z"/>
									<path style="fill:#132A2E;" d="M269.585,443.652c0.152-0.146,0.396-0.145,0.546,0.007c0.148,0.149,0.146,0.392-0.006,0.538
										c-0.153,0.147-0.397,0.146-0.546-0.006C269.429,444.042,269.433,443.8,269.585,443.652z"/>
									<path style="fill:#132A2E;" d="M270.372,444.267c-0.053-0.205,0.072-0.412,0.278-0.464c0.207-0.053,0.417,0.07,0.469,0.274
										c0.053,0.205-0.072,0.412-0.278,0.464C270.635,444.594,270.424,444.471,270.372,444.267z"/>
									<path style="fill:#132A2E;" d="M271.304,443.899c-0.205-0.058-0.325-0.267-0.268-0.47c0.058-0.202,0.271-0.32,0.476-0.263
										c0.205,0.056,0.325,0.267,0.267,0.469C271.722,443.837,271.509,443.956,271.304,443.899z"/>
									<path style="fill:#132A2E;" d="M271.448,442.92c-0.152,0.147-0.396,0.144-0.545-0.006c-0.149-0.151-0.147-0.392,0.006-0.54
										c0.152-0.146,0.396-0.143,0.545,0.006C271.603,442.531,271.601,442.772,271.448,442.92z"/>
								</g>
							</g>
						</g>
						<g>
							<path style="fill:#132A2E;" d="M257.343,480.707c0.637,0,1.16,0.522,1.16,1.16v3.932c0,0.638-0.523,1.159-1.16,1.159h-13.946
								c-0.638,0-1.16-0.522-1.16-1.159v-3.932c0-0.638,0.522-1.16,1.16-1.16H257.343z"/>
							<path style="fill:#132A2E;" d="M241.812,483.94c0.023,0.011-0.425,0.255-0.996,0.538l-1.063,0.531
								c-0.571,0.285-1.505,0.751-2.077,1.037l-6.011,3c-0.571,0.283-1.038-0.005-1.038-0.644v-9.143
								c0-0.638,0.463-0.917,1.028-0.622l5.997,3.129c0.566,0.297,1.491,0.778,2.056,1.074l1.033,0.539
								C241.307,483.678,241.789,483.928,241.812,483.94z"/>
							<rect x="238.681" y="482.305" style="fill:#132A2E;" width="3.556" height="3.224"/>
						</g>
						<path style="fill:#132A2E;" d="M359.474,477.556c-0.793,0.515-2.217,0.936-3.163,0.936h-1.933c-0.946,0-1.72-0.593-1.72-1.316
							c0-0.727-0.774-1.318-1.72-1.318h-10.913c-0.946,0-1.721,0.773-1.721,1.72v13.096c0,0.947,0.775,1.722,1.721,1.722h10.913
							c0.946,0,1.72-0.594,1.72-1.318c0-0.724,0.774-1.316,1.72-1.316h2.013c0.946,0,2.369,0.423,3.161,0.938l13.099,8.536
							c0.792,0.517,1.441,0.166,1.441-0.779v-28.659c0-0.944-0.649-1.298-1.443-0.782L359.474,477.556z"/>
						<path style="fill:#B79C2F;" d="M262.713,509.813c0,2.373-1.884,4.296-4.21,4.296c-2.325,0-4.21-1.923-4.21-4.296
							c0-2.374,1.886-4.298,4.21-4.298C260.829,505.515,262.713,507.439,262.713,509.813z"/>
						<path style="fill:#B79C2F;" d="M273.44,509.813c0,2.373-1.884,4.296-4.209,4.296c-2.326,0-4.211-1.923-4.211-4.296
							c0-2.374,1.885-4.298,4.211-4.298C271.556,505.515,273.44,507.439,273.44,509.813z"/>
						<path style="fill:#1C3E45;" d="M337.539,487.76c0,1.063-0.87,1.933-1.934,1.933h-77.273c-1.064,0-1.934-0.87-1.934-1.933
							v-6.292c0-1.061,0.87-1.933,1.934-1.933h77.273c1.064,0,1.934,0.871,1.934,1.933V487.76z"/>
					</g>
				</g>
			</g>
		</g>
	</g>
	<g>
		<g>
			<rect x="11.932" y="378.235" style="fill:#F39C11;" width="188.294" height="188.295"/>
			
				<linearGradient id="SVGID_00000159451860442756717130000006861453214330251161_" gradientUnits="userSpaceOnUse" x1="98.4257" y1="463.543" x2="213.128" y2="545.7093">
				<stop  offset="0" style="stop-color:#B6750D"/>
				<stop  offset="0.2549" style="stop-color:#C67F0E"/>
				<stop  offset="1" style="stop-color:#F39C11"/>
			</linearGradient>
			<polygon style="fill:url(#SVGID_00000159451860442756717130000006861453214330251161_);" points="200.226,426.694 
				200.226,566.53 95.25,566.53 59.345,545.32 148.822,397.017 			"/>
		</g>
		<g>
			<defs>
				
					<ellipse id="SVGID_00000183960927268327618080000011273889057508295599_" transform="matrix(0.9756 -0.2194 0.2194 0.9756 -101.0512 34.7811)" cx="106.079" cy="472.381" rx="86.615" ry="86.615"/>
			</defs>
			<use xlink:href="#SVGID_00000183960927268327618080000011273889057508295599_"  style="overflow:visible;fill:#E4F1FE;"/>
			<clipPath id="SVGID_00000137108286782847292350000002123448349749413560_">
				<use xlink:href="#SVGID_00000183960927268327618080000011273889057508295599_"  style="overflow:visible;"/>
			</clipPath>
			<g style="clip-path:url(#SVGID_00000137108286782847292350000002123448349749413560_);">
				
					<linearGradient id="SVGID_00000173132814617612336580000004029947155644908163_" gradientUnits="userSpaceOnUse" x1="84.8019" y1="459.1513" x2="196.0777" y2="525.6823">
					<stop  offset="0" style="stop-color:#ABB5BF"/>
					<stop  offset="0.2771" style="stop-color:#BCC6D1"/>
					<stop  offset="1" style="stop-color:#E4F1FE"/>
				</linearGradient>
				<polygon style="fill:url(#SVGID_00000173132814617612336580000004029947155644908163_);" points="195.404,431.548 
					196.962,552.219 103.369,563.243 67.313,542.427 67.313,402.338 144.829,402.349 				"/>
				<g>
					<path style="fill:#1C3E45;" d="M74.654,402.338v140.089h62.849V402.338H74.654z"/>
					<path style="fill:#75A2AA;" d="M131.081,402.338c1.647,0,2.995,1.348,2.995,2.993v16.913c0,1.647-1.347,2.995-2.995,2.995
						H81.077c-1.647,0-2.995-1.348-2.995-2.995v-16.913c0-1.646,1.348-2.993,2.995-2.993H131.081z"/>
					<path style="fill:#75A2AA;" d="M134.076,465.949c0,1.648-1.347,2.996-2.995,2.996H81.077c-1.647,0-2.995-1.349-2.995-2.996
						V435.56c0-1.647,1.348-2.995,2.995-2.995h50.004c1.647,0,2.995,1.348,2.995,2.995V465.949z"/>
					<path style="fill:#75A2AA;" d="M134.076,509.655c0,1.647-1.347,2.995-2.995,2.995H81.077c-1.647,0-2.995-1.348-2.995-2.995
						v-30.389c0-1.647,1.348-2.995,2.995-2.995h50.004c1.647,0,2.995,1.348,2.995,2.995V509.655z"/>
					<path style="fill:#75A2AA;" d="M131.081,519.977c1.647,0,2.995,1.349,2.995,2.995v16.46c0,1.646-1.347,2.994-2.995,2.994
						H81.077c-1.647,0-2.995-1.348-2.995-2.994v-16.46c0-1.647,1.348-2.995,2.995-2.995H131.081z"/>
					<path style="fill:#132A2E;" d="M73.775,402.338v0.454c0,0.572-0.432,1.042-0.958,1.042h-3.268c-0.527,0-0.957-0.47-0.957-1.042
						v-0.454h-1.278v140.089h1.293c0.069-0.5,0.465-0.886,0.943-0.886h3.268c0.479,0,0.873,0.386,0.943,0.886h1.292V402.338H73.775z
						 M73.775,536.657c0,0.573-0.432,1.041-0.958,1.041h-3.268c-0.527,0-0.957-0.468-0.957-1.041v-1.949
						c0-0.574,0.431-1.042,0.957-1.042h3.268c0.526,0,0.958,0.468,0.958,1.042V536.657z M73.775,528.784
						c0,0.571-0.432,1.042-0.958,1.042h-3.268c-0.527,0-0.957-0.471-0.957-1.042v-1.951c0-0.571,0.431-1.041,0.957-1.041h3.268
						c0.526,0,0.958,0.47,0.958,1.041V528.784z M73.775,520.909c0,0.572-0.432,1.042-0.958,1.042h-3.268
						c-0.527,0-0.957-0.47-0.957-1.042v-1.95c0-0.572,0.431-1.042,0.957-1.042h3.268c0.526,0,0.958,0.47,0.958,1.042V520.909z
						 M73.775,513.034c0,0.573-0.432,1.042-0.958,1.042h-3.268c-0.527,0-0.957-0.469-0.957-1.042v-1.95
						c0-0.572,0.431-1.042,0.957-1.042h3.268c0.526,0,0.958,0.47,0.958,1.042V513.034z M73.775,505.159
						c0,0.574-0.432,1.042-0.958,1.042h-3.268c-0.527,0-0.957-0.468-0.957-1.042v-1.949c0-0.573,0.431-1.041,0.957-1.041h3.268
						c0.526,0,0.958,0.468,0.958,1.041V505.159z M73.775,497.286c0,0.572-0.432,1.04-0.958,1.04h-3.268
						c-0.527,0-0.957-0.468-0.957-1.04v-1.951c0-0.573,0.431-1.041,0.957-1.041h3.268c0.526,0,0.958,0.468,0.958,1.041V497.286z
						 M73.775,489.411c0,0.573-0.432,1.041-0.958,1.041h-3.268c-0.527,0-0.957-0.468-0.957-1.041v-1.951
						c0-0.572,0.431-1.04,0.957-1.04h3.268c0.526,0,0.958,0.468,0.958,1.04V489.411z M73.775,481.536
						c0,0.573-0.432,1.041-0.958,1.041h-3.268c-0.527,0-0.957-0.468-0.957-1.041v-1.95c0-0.573,0.431-1.041,0.957-1.041h3.268
						c0.526,0,0.958,0.468,0.958,1.041V481.536z M73.775,473.662c0,0.572-0.432,1.041-0.958,1.041h-3.268
						c-0.527,0-0.957-0.469-0.957-1.041v-1.949c0-0.575,0.431-1.043,0.957-1.043h3.268c0.526,0,0.958,0.468,0.958,1.043V473.662z
						 M73.775,465.787c0,0.573-0.432,1.043-0.958,1.043h-3.268c-0.527,0-0.957-0.47-0.957-1.043v-1.949
						c0-0.573,0.431-1.042,0.957-1.042h3.268c0.526,0,0.958,0.469,0.958,1.042V465.787z M73.775,457.912
						c0,0.573-0.432,1.043-0.958,1.043h-3.268c-0.527,0-0.957-0.47-0.957-1.043v-1.949c0-0.573,0.431-1.042,0.957-1.042h3.268
						c0.526,0,0.958,0.469,0.958,1.042V457.912z M73.775,450.038c0,0.574-0.432,1.042-0.958,1.042h-3.268
						c-0.527,0-0.957-0.468-0.957-1.042v-1.95c0-0.572,0.431-1.042,0.957-1.042h3.268c0.526,0,0.958,0.47,0.958,1.042V450.038z
						 M73.775,442.163c0,0.574-0.432,1.043-0.958,1.043h-3.268c-0.527,0-0.957-0.469-0.957-1.043v-1.949
						c0-0.573,0.431-1.041,0.957-1.041h3.268c0.526,0,0.958,0.468,0.958,1.041V442.163z M73.775,434.29
						c0,0.572-0.432,1.041-0.958,1.041h-3.268c-0.527,0-0.957-0.469-0.957-1.041v-1.951c0-0.573,0.431-1.04,0.957-1.04h3.268
						c0.526,0,0.958,0.467,0.958,1.04V434.29z M73.775,426.416c0,0.572-0.432,1.04-0.958,1.04h-3.268
						c-0.527,0-0.957-0.468-0.957-1.04v-1.952c0-0.572,0.431-1.04,0.957-1.04h3.268c0.526,0,0.958,0.468,0.958,1.04V426.416z
						 M73.775,418.541c0,0.572-0.432,1.041-0.958,1.041h-3.268c-0.527,0-0.957-0.469-0.957-1.041v-1.952
						c0-0.572,0.431-1.04,0.957-1.04h3.268c0.526,0,0.958,0.468,0.958,1.04V418.541z M73.775,410.666
						c0,0.572-0.432,1.041-0.958,1.041h-3.268c-0.527,0-0.957-0.469-0.957-1.041v-1.95c0-0.573,0.431-1.042,0.957-1.042h3.268
						c0.526,0,0.958,0.469,0.958,1.042V410.666z"/>
					<path style="fill:#132A2E;" d="M143.566,402.338v0.454c0,0.572-0.431,1.042-0.958,1.042h-3.268
						c-0.526,0-0.957-0.47-0.957-1.042v-0.454h-1.279v140.089h1.292c0.07-0.5,0.465-0.886,0.943-0.886h3.268
						c0.478,0,0.874,0.386,0.943,0.886h1.292V402.338H143.566z M143.566,536.657c0,0.573-0.431,1.041-0.958,1.041h-3.268
						c-0.526,0-0.957-0.468-0.957-1.041v-1.949c0-0.574,0.431-1.042,0.957-1.042h3.268c0.527,0,0.958,0.468,0.958,1.042V536.657z
						 M143.566,528.784c0,0.571-0.431,1.042-0.958,1.042h-3.268c-0.526,0-0.957-0.471-0.957-1.042v-1.951
						c0-0.571,0.431-1.041,0.957-1.041h3.268c0.527,0,0.958,0.47,0.958,1.041V528.784z M143.566,520.909
						c0,0.572-0.431,1.042-0.958,1.042h-3.268c-0.526,0-0.957-0.47-0.957-1.042v-1.95c0-0.572,0.431-1.042,0.957-1.042h3.268
						c0.527,0,0.958,0.47,0.958,1.042V520.909z M143.566,513.034c0,0.573-0.431,1.042-0.958,1.042h-3.268
						c-0.526,0-0.957-0.469-0.957-1.042v-1.95c0-0.572,0.431-1.042,0.957-1.042h3.268c0.527,0,0.958,0.47,0.958,1.042V513.034z
						 M143.566,505.159c0,0.574-0.431,1.042-0.958,1.042h-3.268c-0.526,0-0.957-0.468-0.957-1.042v-1.949
						c0-0.573,0.431-1.041,0.957-1.041h3.268c0.527,0,0.958,0.468,0.958,1.041V505.159z M143.566,497.286
						c0,0.572-0.431,1.04-0.958,1.04h-3.268c-0.526,0-0.957-0.468-0.957-1.04v-1.951c0-0.573,0.431-1.041,0.957-1.041h3.268
						c0.527,0,0.958,0.468,0.958,1.041V497.286z M143.566,489.411c0,0.573-0.431,1.041-0.958,1.041h-3.268
						c-0.526,0-0.957-0.468-0.957-1.041v-1.951c0-0.572,0.431-1.04,0.957-1.04h3.268c0.527,0,0.958,0.468,0.958,1.04V489.411z
						 M143.566,481.536c0,0.573-0.431,1.041-0.958,1.041h-3.268c-0.526,0-0.957-0.468-0.957-1.041v-1.95
						c0-0.573,0.431-1.041,0.957-1.041h3.268c0.527,0,0.958,0.468,0.958,1.041V481.536z M143.566,473.662
						c0,0.572-0.431,1.041-0.958,1.041h-3.268c-0.526,0-0.957-0.469-0.957-1.041v-1.949c0-0.575,0.431-1.043,0.957-1.043h3.268
						c0.527,0,0.958,0.468,0.958,1.043V473.662z M143.566,465.787c0,0.573-0.431,1.043-0.958,1.043h-3.268
						c-0.526,0-0.957-0.47-0.957-1.043v-1.949c0-0.573,0.431-1.042,0.957-1.042h3.268c0.527,0,0.958,0.469,0.958,1.042V465.787z
						 M143.566,457.912c0,0.573-0.431,1.043-0.958,1.043h-3.268c-0.526,0-0.957-0.47-0.957-1.043v-1.949
						c0-0.573,0.431-1.042,0.957-1.042h3.268c0.527,0,0.958,0.469,0.958,1.042V457.912z M143.566,450.038
						c0,0.574-0.431,1.042-0.958,1.042h-3.268c-0.526,0-0.957-0.468-0.957-1.042v-1.95c0-0.572,0.431-1.042,0.957-1.042h3.268
						c0.527,0,0.958,0.47,0.958,1.042V450.038z M143.566,442.163c0,0.574-0.431,1.043-0.958,1.043h-3.268
						c-0.526,0-0.957-0.469-0.957-1.043v-1.949c0-0.573,0.431-1.041,0.957-1.041h3.268c0.527,0,0.958,0.468,0.958,1.041V442.163z
						 M143.566,434.29c0,0.572-0.431,1.041-0.958,1.041h-3.268c-0.526,0-0.957-0.469-0.957-1.041v-1.951
						c0-0.573,0.431-1.04,0.957-1.04h3.268c0.527,0,0.958,0.467,0.958,1.04V434.29z M143.566,426.416c0,0.572-0.431,1.04-0.958,1.04
						h-3.268c-0.526,0-0.957-0.468-0.957-1.04v-1.952c0-0.572,0.431-1.04,0.957-1.04h3.268c0.527,0,0.958,0.468,0.958,1.04V426.416z
						 M143.566,418.541c0,0.572-0.431,1.041-0.958,1.041h-3.268c-0.526,0-0.957-0.469-0.957-1.041v-1.952
						c0-0.572,0.431-1.04,0.957-1.04h3.268c0.527,0,0.958,0.468,0.958,1.04V418.541z M143.566,410.666
						c0,0.572-0.431,1.041-0.958,1.041h-3.268c-0.526,0-0.957-0.469-0.957-1.041v-1.95c0-0.573,0.431-1.042,0.957-1.042h3.268
						c0.527,0,0.958,0.469,0.958,1.042V410.666z"/>
				</g>
			</g>
		</g>
	</g>
	<g>
		<g>
			<rect x="11.932" y="592.288" style="fill:#7A6964;" width="188.294" height="188.293"/>
			
				<linearGradient id="SVGID_00000151525798004677210030000005688456745781156269_" gradientUnits="userSpaceOnUse" x1="86.5282" y1="668.0858" x2="199.9924" y2="751.9523">
				<stop  offset="0" style="stop-color:#5C4F4B"/>
				<stop  offset="1" style="stop-color:#7A6964"/>
			</linearGradient>
			<polygon style="fill:url(#SVGID_00000151525798004677210030000005688456745781156269_);" points="200.226,640.746 
				200.226,780.581 95.25,780.581 59.345,759.372 148.822,611.068 			"/>
		</g>
		<g>
			<defs>
				
					<ellipse id="SVGID_00000144330984047295927310000011682771180986595234_" transform="matrix(0.9756 -0.2194 0.2194 0.9756 -148.0121 39.996)" cx="106.079" cy="686.434" rx="86.615" ry="86.615"/>
			</defs>
			<use xlink:href="#SVGID_00000144330984047295927310000011682771180986595234_"  style="overflow:visible;fill:#C7EBE3;"/>
			<clipPath id="SVGID_00000054968762069659834870000006808415712547545258_">
				<use xlink:href="#SVGID_00000144330984047295927310000011682771180986595234_"  style="overflow:visible;"/>
			</clipPath>
			<g style="clip-path:url(#SVGID_00000054968762069659834870000006808415712547545258_);">
				
					<linearGradient id="SVGID_00000026124161721381875490000004079433176704002231_" gradientUnits="userSpaceOnUse" x1="82.5983" y1="680.658" x2="195.5182" y2="745.4247">
					<stop  offset="0" style="stop-color:#95B0AA"/>
					<stop  offset="0.2816" style="stop-color:#9FBCB6"/>
					<stop  offset="0.7898" style="stop-color:#BADCD4"/>
					<stop  offset="1" style="stop-color:#C7EBE3"/>
				</linearGradient>
				<polygon style="fill:url(#SVGID_00000026124161721381875490000004079433176704002231_);" points="196.029,660.514 
					196.029,765.142 103.331,777.952 65.854,756.315 116.19,617.269 128.911,624.613 131.031,624.988 140.696,630.567 
					143.737,630.322 				"/>
				<g>
					<g>
						<g>
							<path style="fill:#D99804;" d="M80.507,641.21c-1.887,0-3.631,0.602-5.063,1.615c-1.207-3.409-4.449-5.854-8.27-5.854
								c-4.851,0-8.781,3.931-8.781,8.781c0,3.928,2.581,7.252,6.139,8.373c-0.627,1.104-0.992,2.378-0.992,3.737
								c0,4.181,3.39,7.57,7.569,7.57c3.943,0,7.178-3.015,7.535-6.864c0.6,0.13,1.224,0.203,1.863,0.203
								c4.85,0,8.781-3.932,8.781-8.781C89.288,645.141,85.357,641.21,80.507,641.21z"/>
							<path style="fill:#D99804;" d="M98.674,635.759c-1.888,0-3.631,0.604-5.063,1.615c-1.208-3.407-4.45-5.854-8.271-5.854
								c-4.85,0-8.782,3.932-8.782,8.782c0,3.927,2.582,7.254,6.14,8.375c-0.628,1.103-0.991,2.376-0.991,3.736
								c0,4.181,3.389,7.568,7.569,7.568c3.942,0,7.178-3.013,7.534-6.863c0.602,0.131,1.224,0.203,1.864,0.203
								c4.85,0,8.781-3.932,8.781-8.782C107.456,639.691,103.524,635.759,98.674,635.759z"/>
							<path style="fill:#D99804;" d="M116.446,641.21c-1.887,0-3.632,0.602-5.063,1.615c-1.206-3.409-4.449-5.854-8.271-5.854
								c-4.85,0-8.781,3.931-8.781,8.781c0,3.928,2.58,7.252,6.139,8.373c-0.628,1.104-0.991,2.378-0.991,3.737
								c0,4.181,3.389,7.57,7.57,7.57c3.942,0,7.177-3.015,7.534-6.864c0.601,0.13,1.223,0.203,1.864,0.203
								c4.849,0,8.781-3.932,8.781-8.781C125.227,645.141,121.295,641.21,116.446,641.21z"/>
							<path style="fill:#D99804;" d="M120.249,635.759c-1.887,0-3.631,0.604-5.063,1.615c-1.207-3.407-4.449-5.854-8.27-5.854
								c-4.85,0-8.781,3.932-8.781,8.782c0,3.927,2.581,7.254,6.14,8.375c-0.628,1.103-0.993,2.376-0.993,3.736
								c0,4.181,3.39,7.568,7.57,7.568c3.943,0,7.178-3.013,7.534-6.863c0.601,0.131,1.224,0.203,1.863,0.203
								c4.85,0,8.782-3.932,8.782-8.782C129.031,639.691,125.099,635.759,120.249,635.759z"/>
							<path style="fill:#D99804;" d="M111.298,626.979c-1.887,0-3.631,0.602-5.063,1.614c-1.207-3.406-4.449-5.853-8.27-5.853
								c-4.85,0-8.781,3.933-8.781,8.781c0,3.929,2.582,7.255,6.14,8.376c-0.628,1.104-0.992,2.376-0.992,3.736
								c0,4.181,3.389,7.568,7.569,7.568c3.942,0,7.178-3.014,7.534-6.863c0.601,0.131,1.224,0.202,1.863,0.202
								c4.851,0,8.781-3.931,8.781-8.781C120.079,630.91,116.148,626.979,111.298,626.979z"/>
							<path style="fill:#D99804;" d="M138.006,643.18c-1.887,0-3.631,0.601-5.063,1.615c-1.207-3.408-4.449-5.854-8.27-5.854
								c-4.85,0-8.781,3.931-8.781,8.78c0,3.93,2.581,7.254,6.139,8.376c-0.629,1.104-0.992,2.376-0.992,3.736
								c0,4.181,3.39,7.571,7.57,7.571c3.943,0,7.178-3.017,7.535-6.864c0.6,0.128,1.223,0.2,1.863,0.2
								c4.849,0,8.781-3.931,8.781-8.78C146.788,647.111,142.855,643.18,138.006,643.18z"/>
							<path style="fill:#D99804;" d="M139.033,635.759c-1.887,0-3.632,0.604-5.064,1.615c-1.206-3.407-4.449-5.854-8.27-5.854
								c-4.85,0-8.781,3.932-8.781,8.782c0,3.927,2.58,7.254,6.14,8.375c-0.629,1.103-0.993,2.376-0.993,3.736
								c0,4.181,3.389,7.568,7.57,7.568c3.943,0,7.178-3.013,7.534-6.863c0.601,0.131,1.223,0.203,1.863,0.203
								c4.85,0,8.781-3.932,8.781-8.782C147.813,639.691,143.882,635.759,139.033,635.759z"/>
							<path style="fill:#D99804;" d="M143.575,641.21c-1.888,0-3.632,0.602-5.064,1.615c-1.206-3.409-4.449-5.854-8.27-5.854
								c-4.85,0-8.781,3.931-8.781,8.781c0,3.928,2.581,7.252,6.14,8.373c-0.629,1.104-0.993,2.378-0.993,3.737
								c0,4.181,3.389,7.57,7.569,7.57c3.943,0,7.179-3.015,7.535-6.864c0.601,0.13,1.223,0.203,1.863,0.203
								c4.85,0,8.781-3.932,8.781-8.781C152.355,645.141,148.424,641.21,143.575,641.21z"/>
							<path style="fill:#D99804;" d="M139.033,628.949c-1.887,0-3.632,0.601-5.064,1.613c-1.206-3.408-4.449-5.854-8.27-5.854
								c-4.85,0-8.781,3.933-8.781,8.781c0,3.93,2.58,7.254,6.14,8.375c-0.629,1.103-0.993,2.376-0.993,3.736
								c0,4.181,3.389,7.57,7.57,7.57c3.943,0,7.178-3.015,7.534-6.864c0.601,0.13,1.223,0.203,1.863,0.203
								c4.85,0,8.781-3.932,8.781-8.781S143.882,628.949,139.033,628.949z"/>
							<path style="fill:#D99804;" d="M126.539,623.765c-1.888,0-3.632,0.603-5.063,1.615c-1.207-3.407-4.449-5.853-8.271-5.853
								c-4.85,0-8.781,3.932-8.781,8.781c0,3.928,2.581,7.253,6.14,8.375c-0.629,1.103-0.993,2.376-0.993,3.736
								c0,4.181,3.389,7.568,7.57,7.568c3.942,0,7.178-3.014,7.534-6.862c0.601,0.131,1.223,0.201,1.863,0.201
								c4.85,0,8.781-3.931,8.781-8.78C135.32,627.695,131.389,623.765,126.539,623.765z"/>
							<path style="fill:#D99804;" d="M98.674,628.949c-1.888,0-3.631,0.601-5.063,1.613c-1.208-3.408-4.45-5.854-8.271-5.854
								c-4.85,0-8.782,2.721-8.782,8.781c0,3.93,2.582,7.254,6.14,8.375c-0.628,1.103-0.991,2.376-0.991,3.736
								c0,4.181,3.389,7.57,7.569,7.57c3.942,0,7.178-3.015,7.534-6.864c0.602,0.13,1.224,0.203,1.864,0.203
								c4.85,0,8.781-3.932,8.781-8.781S103.524,628.949,98.674,628.949z"/>
							<path style="fill:#D99804;" d="M87.485,632.504c-1.888,0-3.632,0.602-5.063,1.616c-1.207-3.408-4.449-5.854-8.271-5.854
								c-4.849,0-8.781,3.932-8.781,8.78c0,3.929,2.581,7.255,6.139,8.376c-0.628,1.104-0.991,2.376-0.991,3.736
								c0,4.181,3.389,7.569,7.57,7.569c3.941,0,7.177-3.015,7.534-6.864c0.601,0.131,1.224,0.202,1.863,0.202
								c4.85,0,8.781-3.931,8.781-8.781C96.266,636.437,92.335,632.504,87.485,632.504z"/>
						</g>
						<path style="fill:#EFE9D1;" d="M79.172,646.282c-1.887,0-3.632,0.602-5.063,1.615c-1.207-3.408-4.449-5.854-8.271-5.854
							c-4.849,0-8.781,3.931-8.781,8.781c0,3.93,2.581,7.253,6.139,8.376c-0.628,1.102-0.992,2.375-0.992,3.735
							c0,4.18,3.39,7.57,7.57,7.57c3.942,0,7.177-3.016,7.534-6.863c0.602,0.129,1.224,0.201,1.863,0.201
							c4.85,0,8.781-3.932,8.781-8.781C87.953,650.215,84.022,646.282,79.172,646.282z"/>
						<path style="fill:#EFE9D1;" d="M93.706,636.29c-1.887,0-3.631,0.603-5.063,1.614c-1.207-3.407-4.449-5.852-8.27-5.852
							c-4.85,0-8.781,3.931-8.781,8.781c0,3.927,2.581,7.252,6.139,8.373c-0.628,1.104-0.992,2.377-0.992,3.737
							c0,4.181,3.39,7.57,7.57,7.57c3.943,0,7.178-3.015,7.535-6.864c0.602,0.131,1.224,0.203,1.863,0.203
							c4.85,0,8.781-3.932,8.781-8.781C102.488,640.221,98.557,636.29,93.706,636.29z"/>
						<path style="fill:#EFE9D1;" d="M115.112,646.282c-1.888,0-3.632,0.602-5.063,1.615c-1.207-3.408-4.449-5.854-8.271-5.854
							c-4.85,0-8.781,3.931-8.781,8.781c0,3.93,2.58,7.253,6.139,8.376c-0.629,1.102-0.992,2.375-0.992,3.735
							c0,4.18,3.389,7.57,7.569,7.57c3.943,0,7.178-3.016,7.535-6.863c0.6,0.129,1.223,0.201,1.863,0.201
							c4.849,0,8.781-3.932,8.781-8.781C123.893,650.215,119.96,646.282,115.112,646.282z"/>
						<path style="fill:#EFE9D1;" d="M109.056,629.78c-1.887,0-3.632,0.6-5.063,1.614c-1.207-3.408-4.449-5.852-8.271-5.852
							c-4.849,0-8.78,3.931-8.78,8.781c0,3.927,2.58,7.252,6.138,8.373c-0.627,1.104-0.991,2.377-0.991,3.737
							c0,4.182,3.389,7.57,7.57,7.57c3.943,0,7.178-3.015,7.534-6.864c0.601,0.13,1.224,0.203,1.864,0.203
							c4.85,0,8.78-3.932,8.78-8.781C117.836,633.711,113.905,629.78,109.056,629.78z"/>
						<path style="fill:#EFE9D1;" d="M137.698,640.833c-1.887,0-3.632,0.601-5.063,1.613c-1.207-3.408-4.448-5.854-8.27-5.854
							c-4.85,0-8.781,3.931-8.781,8.781c0,3.93,2.581,7.254,6.14,8.375c-0.628,1.103-0.993,2.376-0.993,3.736
							c0,4.181,3.39,7.57,7.571,7.57c3.942,0,7.177-3.015,7.534-6.864c0.6,0.13,1.223,0.203,1.863,0.203
							c4.85,0,8.781-3.933,8.781-8.781C146.479,644.764,142.548,640.833,137.698,640.833z"/>
						<path style="fill:#EAC254;" d="M111.557,623.008c-1.888,0-3.632,0.601-5.063,1.613c-1.207-3.406-4.449-5.854-8.271-5.854
							c-4.849,0-8.781,3.933-8.781,8.781c0,3.929,2.581,7.255,6.139,8.375c-0.628,1.104-0.991,2.377-0.991,3.737
							c0,4.181,3.389,7.568,7.57,7.568c3.941,0,7.177-3.014,7.534-6.863c0.601,0.131,1.224,0.202,1.863,0.202
							c4.85,0,8.781-3.931,8.781-8.781C120.337,626.938,116.407,623.008,111.557,623.008z"/>
						<path style="fill:#EAC254;" d="M118.915,640.833c-1.887,0-3.631,0.601-5.063,1.613c-1.207-3.408-4.449-5.854-8.27-5.854
							c-4.85,0-8.781,3.931-8.781,8.781c0,3.93,2.581,7.254,6.14,8.375c-0.628,1.103-0.993,2.376-0.993,3.736
							c0,4.181,3.39,7.57,7.571,7.57c3.942,0,7.177-3.015,7.534-6.864c0.602,0.13,1.223,0.203,1.863,0.203
							c4.85,0,8.782-3.933,8.782-8.781C127.696,644.764,123.765,640.833,118.915,640.833z"/>
						<path style="fill:#EAC254;" d="M81.416,637.577c-1.888,0-3.632,0.6-5.064,1.614c-1.207-3.408-4.449-5.854-8.271-5.854
							c-4.849,0-8.78,3.932-8.78,8.779c0,3.93,2.581,7.255,6.138,8.376c-0.628,1.103-0.991,2.377-0.991,3.736
							c0,4.181,3.389,7.57,7.569,7.57c3.942,0,7.178-3.016,7.534-6.863c0.602,0.129,1.224,0.202,1.865,0.202
							c4.849,0,8.78-3.932,8.78-8.78C90.196,641.508,86.265,637.577,81.416,637.577z"/>
						<path style="fill:#EAC254;" d="M102.933,646.282c-1.887,0-3.631,0.602-5.063,1.615c-1.207-3.408-4.449-5.854-8.27-5.854
							c-4.85,0-8.781,3.931-8.781,8.781c0,3.93,2.581,7.253,6.139,8.376c-0.628,1.102-0.992,2.375-0.992,3.735
							c0,4.18,3.389,7.57,7.569,7.57c3.943,0,7.179-3.016,7.535-6.863c0.601,0.129,1.224,0.201,1.863,0.201
							c4.85,0,8.781-3.932,8.781-8.781C111.714,650.215,107.782,646.282,102.933,646.282z"/>
						<path style="fill:#EAC254;" d="M143.917,635.231c-1.887,0-3.632,0.601-5.064,1.615c-1.207-3.408-4.449-5.856-8.27-5.856
							c-4.85,0-8.781,3.934-8.781,8.781c0,3.93,2.58,7.254,6.139,8.376c-0.629,1.102-0.992,2.376-0.992,3.736
							c0,4.181,3.389,7.569,7.57,7.569c3.943,0,7.178-3.015,7.535-6.863c0.6,0.129,1.223,0.202,1.863,0.202
							c4.849,0,8.781-3.931,8.781-8.78S148.766,635.231,143.917,635.231z"/>
						<path style="fill:#EFE9D1;" d="M144.347,641.976c-1.853,0.361-3.45,1.287-4.66,2.556c-1.837-3.113-5.488-4.892-9.239-4.16
							c-4.76,0.929-7.866,5.54-6.936,10.302c0.753,3.854,3.924,6.623,7.631,7.043c-0.405,1.203-0.518,2.521-0.258,3.857
							c0.802,4.103,4.777,6.781,8.88,5.979c3.87-0.756,6.467-4.333,6.08-8.18c0.615,0.012,1.239-0.036,1.867-0.159
							c4.761-0.929,7.865-5.542,6.936-10.301C153.718,644.152,149.106,641.047,144.347,641.976z"/>
						<path style="fill:#EFE9D1;" d="M126.165,624.083c-1.825-0.479-3.665-0.341-5.308,0.275c-0.3-3.604-2.813-6.795-6.509-7.766
							c-4.69-1.234-9.493,1.567-10.726,6.259c-1,3.797,0.651,7.669,3.807,9.66c-0.889,0.906-1.564,2.046-1.91,3.361
							c-1.063,4.043,1.352,8.183,5.395,9.246c3.813,1.004,7.708-1.089,9.033-4.722c0.547,0.279,1.131,0.509,1.751,0.671
							c4.689,1.234,9.492-1.568,10.726-6.259C133.657,630.12,130.855,625.317,126.165,624.083z"/>
						<path style="fill:#EAC254;" d="M103.468,646.888c-1.889,0-3.633,0.602-5.064,1.615c-1.206-3.409-4.449-5.855-8.271-5.855
							c-4.849,0-8.781,3.933-8.781,8.781c0,3.93,2.581,7.253,6.139,8.375c-0.628,1.103-0.991,2.377-0.991,3.736
							c0,4.181,3.389,7.57,7.569,7.57c3.942,0,7.177-3.016,7.534-6.864c0.602,0.13,1.224,0.203,1.865,0.203
							c4.849,0,8.78-3.931,8.78-8.781C112.248,650.819,108.316,646.888,103.468,646.888z"/>
						<path style="fill:#EFE9D1;" d="M128.677,648.54c-1.853,0.361-3.449,1.285-4.66,2.556c-1.837-3.114-5.488-4.894-9.239-4.16
							c-4.76,0.928-7.864,5.541-6.936,10.3c0.753,3.856,3.924,6.624,7.631,7.043c-0.405,1.203-0.518,2.522-0.257,3.858
							c0.801,4.102,4.776,6.779,8.879,5.978c3.87-0.755,6.467-4.333,6.08-8.18c0.615,0.012,1.239-0.036,1.868-0.159
							c4.759-0.929,7.864-5.54,6.934-10.301C138.048,650.715,133.436,647.61,128.677,648.54z"/>
						<path style="fill:#EAC254;" d="M102.024,646.434c-1.888,0-3.632,0.602-5.063,1.615c-1.207-3.409-4.449-5.855-8.271-5.855
							c-4.849,0-8.781,3.931-8.781,8.781c0,3.93,2.58,7.253,6.139,8.376c-0.628,1.102-0.992,2.375-0.992,3.734
							c0,4.183,3.39,7.571,7.57,7.571c3.942,0,7.178-3.016,7.534-6.863c0.602,0.129,1.223,0.202,1.863,0.202
							c4.85,0,8.781-3.933,8.781-8.781C110.805,650.366,106.874,646.434,102.024,646.434z"/>
						<path style="fill:#D99804;" d="M103.291,649.503c-1.866-0.279-3.681,0.056-5.247,0.845c-0.687-3.549-3.531-6.448-7.31-7.017
							c-4.796-0.719-9.267,2.585-9.987,7.381c-0.584,3.886,1.476,7.557,4.828,9.194c-0.785,0.996-1.334,2.203-1.535,3.548
							c-0.621,4.135,2.228,7.988,6.362,8.609c3.898,0.585,7.546-1.916,8.469-5.669c0.576,0.217,1.18,0.382,1.813,0.475
							c4.795,0.722,9.267-2.582,9.987-7.38C111.391,654.694,108.087,650.223,103.291,649.503z"/>
						<path style="fill:#D99804;" d="M144.832,652.326c-1.867-0.28-3.681,0.055-5.247,0.846c-0.688-3.551-3.531-6.45-7.31-7.017
							c-4.796-0.721-9.268,2.584-9.988,7.38c-0.583,3.885,1.476,7.557,4.829,9.193c-0.785,0.998-1.334,2.202-1.536,3.549
							c-0.62,4.134,2.228,7.988,6.362,8.608c3.899,0.586,7.547-1.916,8.47-5.67c0.575,0.218,1.18,0.383,1.813,0.478
							c4.796,0.719,9.267-2.585,9.987-7.38C152.931,657.517,149.627,653.046,144.832,652.326z"/>
					</g>
					<path style="fill:#ECF0F1;" d="M148.803,658.545c-0.966,0-2.549,0-3.515,0h-4.356c-0.967,0-2.549,0-3.516,0h-6.375
						c-0.967,0-2.549,0-3.516,0h-4.334c-0.967,0-2.548,0-3.516,0h-7.95c-0.966,0-2.548,0-3.515,0h-0.374c-0.967,0-2.549,0-3.516,0
						h-0.434c-0.966,0-2.548,0-3.516,0h-7.385c-0.966,0-2.549,0-3.516,0h-4.333c-0.967,0-2.549,0-3.516,0h-6.374
						c-0.968,0-2.55,0-3.517,0h-4.356c-0.966,0-2.548,0-3.515,0h-3.71c-0.966,0-1.692,0.787-1.614,1.751l7.552,92.224
						c0.079,0.963,0.934,1.752,1.902,1.752h3.452c0.967,0,2.548,0,3.516,0h4.357c0.966,0,2.549,0,3.515,0h3.057
						c0.966,0,2.549,0,3.515,0h4.334c0.967,0,2.549,0,3.515,0h3.186c0.967,0,2.549,0,3.516,0h0.371c0.967,0,2.549,0,3.516,0h0.437
						c0.967,0,2.549,0,3.516,0h3.623c0.966,0,2.548,0,3.515,0h4.334c0.967,0,2.549,0,3.515,0h3.057c0.967,0,2.549,0,3.515,0h4.357
						c0.967,0,2.548,0,3.516,0h2.947c0.967,0,1.823-0.789,1.901-1.752l7.552-92.224c0.079-0.964-0.647-1.751-1.615-1.751H148.803z"
						/>
					<g>
						<polygon style="fill:#C0392B;" points="65.364,658.545 72.946,754.271 80.818,754.271 73.236,658.545 						"/>
						<polygon style="fill:#C0392B;" points="83.127,658.545 87.39,754.271 95.239,754.271 90.977,658.545 						"/>
						<polygon style="fill:#C0392B;" points="138.921,658.545 131.339,754.271 139.211,754.271 146.793,658.545 						"/>
						<polygon style="fill:#C0392B;" points="121.181,658.545 116.918,754.271 124.767,754.271 129.031,658.545 						"/>
						<polygon style="fill:#C0392B;" points="105.826,658.545 101.877,658.545 101.94,754.271 105.826,754.271 109.779,754.271 
							109.716,658.545 						"/>
					</g>
					<path style="fill:#C0392B;" d="M156.051,657.366c0,0.772-0.632,1.406-1.405,1.406H57.512c-0.773,0-1.406-0.634-1.406-1.406
						v-0.972c0-0.773,0.633-1.407,1.406-1.407h97.134c0.773,0,1.405,0.634,1.405,1.407V657.366z"/>
					<path style="fill:#C0392B;" d="M146.793,755.423c0,0.63-0.515,1.146-1.145,1.146H66.576c-0.629,0-1.145-0.516-1.145-1.146
						v-0.792c0-0.629,0.516-1.144,1.145-1.144h79.072c0.63,0,1.145,0.515,1.145,1.144V755.423z"/>
				</g>
			</g>
		</g>
	</g>
	<g>
		<g>
			<rect x="208.212" y="592.288" style="fill:#49B5B0;" width="188.294" height="188.293"/>
			
				<linearGradient id="SVGID_00000149372245794607596730000009404576218990119346_" gradientUnits="userSpaceOnUse" x1="294.7065" y1="677.5947" x2="409.4083" y2="759.7606">
				<stop  offset="0" style="stop-color:#378884"/>
				<stop  offset="0.0073" style="stop-color:#378884"/>
				<stop  offset="1" style="stop-color:#49B5B0"/>
			</linearGradient>
			<polygon style="fill:url(#SVGID_00000149372245794607596730000009404576218990119346_);" points="396.506,640.746 
				396.506,780.581 291.531,780.581 255.626,759.372 345.103,611.068 			"/>
		</g>
		<g>
			<g>
				
					<ellipse transform="matrix(0.981 -0.194 0.194 0.981 -127.4379 71.7088)" style="fill:#FCEEEC;" cx="302.36" cy="686.434" rx="86.616" ry="86.615"/>
			</g>
			<g>
				<defs>
					
						<ellipse id="SVGID_00000137117228842562580580000014385721957991735952_" transform="matrix(0.981 -0.194 0.194 0.981 -127.4379 71.7088)" cx="302.36" cy="686.434" rx="86.616" ry="86.615"/>
				</defs>
				<clipPath id="SVGID_00000160158879296398748420000002213008470372194490_">
					<use xlink:href="#SVGID_00000137117228842562580580000014385721957991735952_"  style="overflow:visible;"/>
				</clipPath>
				
					<linearGradient id="SVGID_00000042699324429106872170000004653322193043014570_" gradientUnits="userSpaceOnUse" x1="288.8003" y1="674.3912" x2="396.0457" y2="738.1948">
					<stop  offset="0" style="stop-color:#BDB3B1"/>
					<stop  offset="1" style="stop-color:#FCEEEC"/>
				</linearGradient>
				
					<polygon style="clip-path:url(#SVGID_00000160158879296398748420000002213008470372194490_);fill:url(#SVGID_00000042699324429106872170000004653322193043014570_);" points="
					393.684,656.479 384.185,750.027 323.386,774.44 275.722,746.921 274.184,678.606 268.896,675.554 273.032,672.405 
					271.393,671.46 298.369,671.46 303.861,633.977 304.272,631.169 305.834,630.212 340.287,625.65 				"/>
				<g style="clip-path:url(#SVGID_00000160158879296398748420000002213008470372194490_);">
					<g>
						<g>
							<path style="fill:#902B20;" d="M333.808,674.18c0,0.976-0.988,1.773-2.195,1.773h-61.317c-1.208,0-2.196-0.798-2.196-1.773
								c0-0.977,0.988-1.775,2.196-1.775h61.317C332.82,672.404,333.808,673.203,333.808,674.18z"/>
							<g>
								<path style="fill:#C0392B;" d="M302.591,677.018c-0.885,0-1.643,0-1.684,0c-0.041,0-0.799,0-1.685,0h-26.723
									c-0.885,0-1.566,0.723-1.512,1.604l4.041,67.009c0.054,0.883,0.821,1.604,1.706,1.604h22.489c0.886,0,1.644,0,1.685,0
									c0.041,0,0.8,0,1.684,0h22.489c0.886,0,1.653-0.722,1.706-1.604l4.041-67.009c0.054-0.882-0.628-1.604-1.512-1.604H302.591z
									"/>
								<g>
									<g>
										<path style="fill:#F5D76E;" d="M319.218,712.127c0,9.5-8.198,17.202-18.312,17.202c-10.113,0-18.312-7.702-18.312-17.202
											c0-9.502,8.198-17.202,18.312-17.202C311.02,694.925,319.218,702.625,319.218,712.127z"/>
									</g>
									<g>
										<ellipse style="fill:#FFFFFF;" cx="300.906" cy="712.127" rx="13.025" ry="12.235"/>
									</g>
									<path style="fill:#528B95;" d="M300.906,704.654c-4.252,0-7.698,3.238-7.698,7.231h-2.525
										c0-5.304,4.577-9.605,10.224-9.605c5.646,0,10.224,4.302,10.224,9.605h-2.525
										C308.605,707.893,305.158,704.654,300.906,704.654z"/>
								</g>
							</g>
						</g>
						<g>
							<path style="opacity:0.2;fill:#252429;" d="M305.462,643.445c-1.301-0.162-2.627-0.254-3.977-0.254
								c-16.619,0-30.092,12.655-30.092,28.269h7.96h51.992C331.345,657.117,320.165,645.276,305.462,643.445z"/>
							<g>
								<path style="opacity:0.2;fill:#6E6B7B;" d="M305.462,643.445c-14.735,1.831-26.109,13.672-26.109,28.015h51.992
									C331.345,657.117,320.165,645.276,305.462,643.445z"/>
							</g>
						</g>
					</g>
					<g>
						<polygon style="fill:#1C3E45;" points="306.84,630.91 340.516,627.885 340.265,625.632 306.874,628.632 304.616,628.835 
							304.548,628.841 304.576,629.096 304.215,631.562 306.444,633.631 						"/>
						<polygon style="fill:#1C3E45;" points="303.603,635.741 305.835,637.81 306.092,636.045 303.861,633.977 						"/>
						<polygon style="fill:#1C3E45;" points="298.369,671.46 300.929,671.46 305.482,640.227 303.249,638.155 						"/>
					</g>
				</g>
			</g>
		</g>
	</g>
	<g>
		<g>
			<g>
				<rect x="112.967" y="45.344" style="fill:#26535C;" width="85.195" height="84.13"/>
				<polygon style="fill:#336E7B;" points="23.114,110.039 132.402,110.039 132.402,25.909 23.114,25.909 68.506,67.766 				"/>
				<polygon style="fill:#1C3E45;" points="112.967,129.474 112.967,110.039 132.402,110.039 				"/>
				<polygon style="fill:#1C3E45;" points="198.162,129.474 178.727,110.039 198.162,110.039 				"/>
			</g>
			<g>
				<rect x="601.24" y="45.344" style="fill:#26535C;" width="85.194" height="84.13"/>
				<polygon style="fill:#336E7B;" points="776.289,110.039 666.999,110.039 666.999,25.909 776.289,25.909 730.894,67.766 				"/>
				<polygon style="fill:#1C3E45;" points="686.435,129.474 686.435,110.039 666.999,110.039 				"/>
				<polygon style="fill:#1C3E45;" points="601.24,129.474 620.675,110.039 601.24,110.039 				"/>
			</g>
			<polygon style="fill:#336E7B;" points="399.701,25.909 178.727,25.909 178.727,110.039 399.701,110.039 620.675,110.039 
				620.675,25.909 			"/>
		</g>
		<g id="CINEMA_ICONS__-_Archivo_Black_Regular">
			<path style="fill:#D6E2E5;" d="M235.186,63.476h-10.111c0-3.786-2.012-6.23-5.798-6.23c-4.504,0-6.229,3.114-6.229,7.619v3.066
				c0,4.505,1.821,7.62,6.134,7.62c4.169,0,6.229-2.252,6.229-6.038h9.776c0,9.058-5.798,13.945-15.861,13.945
				c-11.262,0-17.107-5.798-17.107-17.06c0-11.261,5.846-17.059,17.107-17.059C228.908,49.339,235.186,54.274,235.186,63.476z"/>
			<path style="fill:#D6E2E5;" d="M241.369,82.883V49.914h10.589v32.969H241.369z"/>
			<path style="fill:#D6E2E5;" d="M283.108,82.883l-13.849-16.005v16.005h-9.728V49.914h9.249l13.849,16.244V49.914h9.728v32.969
				H283.108z"/>
			<path style="fill:#D6E2E5;" d="M299.449,49.914h28.513v7.907H310.04v4.553h15.334v7.571H310.04v5.032h18.258v7.907h-28.849
				V49.914z"/>
			<path style="fill:#D6E2E5;" d="M362.369,82.883V70.998c0-4.983,0.767-10.446,0.767-10.446h-0.191l-6.086,22.331h-8.29
				L342.435,60.6h-0.191c0,0,0.863,5.415,0.863,10.398v11.885h-9.728V49.914h14.951l4.984,19.024h0.19l4.937-19.024h14.423v32.969
				H362.369z"/>
			<path style="fill:#D6E2E5;" d="M401.378,82.883l-1.389-4.648h-11.55l-1.388,4.648H376.22l12.028-32.969h12.314l12.028,32.969
				H401.378z M390.645,70.854h7.14l-3.451-11.74h-0.192L390.645,70.854z"/>
			<path style="fill:#D6E2E5;" d="M433.006,82.883V49.914h10.591v32.969H433.006z"/>
			<path style="fill:#D6E2E5;" d="M482.749,63.476h-10.112c0-3.786-2.012-6.23-5.798-6.23c-4.504,0-6.229,3.114-6.229,7.619v3.066
				c0,4.505,1.821,7.62,6.135,7.62c4.168,0,6.229-2.252,6.229-6.038h9.776c0,9.058-5.798,13.945-15.861,13.945
				c-11.262,0-17.108-5.798-17.108-17.06c0-11.261,5.847-17.059,17.108-17.059C476.472,49.339,482.749,54.274,482.749,63.476z"/>
			<path style="fill:#D6E2E5;" d="M522.667,66.398c0,11.261-6.565,17.06-17.826,17.06s-17.778-5.798-17.778-17.06
				c0-11.261,6.517-17.059,17.778-17.059S522.667,55.137,522.667,66.398z M497.894,64.865v3.066c0,4.505,2.299,7.62,6.947,7.62
				c4.649,0,6.996-3.114,6.996-7.62v-3.066c0-4.505-2.347-7.619-6.996-7.619C500.192,57.246,497.894,60.36,497.894,64.865z"/>
			<path style="fill:#D6E2E5;" d="M551.948,82.883L538.1,66.877v16.005h-9.728V49.914h9.248l13.85,16.244V49.914h9.729v32.969
				H551.948z"/>
			<path style="fill:#D6E2E5;" d="M596.708,59.498v0.575h-9.919v-0.192c0-1.725-1.198-3.354-4.266-3.354
				c-2.922,0-4.36,1.007-4.36,2.157c0,4.936,19.215,1.054,19.455,13.273c0,8.195-6.229,11.501-14.52,11.501
				c-9.248,0-16.292-2.348-16.292-11.74h10.014c0,3.546,2.061,4.169,5.32,4.169c1.917,0,4.648-0.144,4.648-2.204
				c0-4.744-19.456-0.959-19.456-13.801c0-7.667,6.996-10.542,14.808-10.542C590.095,49.339,596.563,52.453,596.708,59.498z"/>
		</g>
	</g>
	<g>
		<g>
			<rect x="404.493" y="592.288" style="fill:#F39C11;" width="188.295" height="188.293"/>
			
				<linearGradient id="SVGID_00000074414690581623363150000002160020427538331278_" gradientUnits="userSpaceOnUse" x1="490.9871" y1="677.5942" x2="605.6899" y2="759.7609">
				<stop  offset="0" style="stop-color:#B6750D"/>
				<stop  offset="0.2549" style="stop-color:#C67F0E"/>
				<stop  offset="1" style="stop-color:#F39C11"/>
			</linearGradient>
			<polygon style="fill:url(#SVGID_00000074414690581623363150000002160020427538331278_);" points="592.788,640.746 
				592.788,780.581 487.81,780.581 451.907,759.372 541.383,611.068 			"/>
		</g>
		<g>
			<defs>
				<path id="SVGID_00000042010650537125681350000018232891764538553778_" d="M585.256,686.434
					c0,47.836-38.779,86.615-86.616,86.615c-47.836,0-86.614-38.779-86.614-86.615c0-47.835,38.778-86.614,86.614-86.614
					C546.477,599.819,585.256,638.599,585.256,686.434z"/>
			</defs>
			<use xlink:href="#SVGID_00000042010650537125681350000018232891764538553778_"  style="overflow:visible;fill:#E4F1FE;"/>
			<clipPath id="SVGID_00000055687445766129436410000012476328983229974454_">
				<use xlink:href="#SVGID_00000042010650537125681350000018232891764538553778_"  style="overflow:visible;"/>
			</clipPath>
			<g style="clip-path:url(#SVGID_00000055687445766129436410000012476328983229974454_);">
				
					<linearGradient id="SVGID_00000083806942200430245060000015805731725147987343_" gradientUnits="userSpaceOnUse" x1="492.0806" y1="679.9357" x2="592.9117" y2="741.2882">
					<stop  offset="0" style="stop-color:#ABB5BF"/>
					<stop  offset="0.2771" style="stop-color:#BCC6D1"/>
					<stop  offset="1" style="stop-color:#E4F1FE"/>
				</linearGradient>
				<polygon style="fill:url(#SVGID_00000083806942200430245060000015805731725147987343_);" points="589.552,690.449 
					585.256,737.674 558.554,768.226 527.963,750.563 471.523,622.305 				"/>
				<g>
					<path style="fill:#528B95;" d="M542.416,741.108c1.055-1.658,3.255-2.146,4.91-1.09l1.146-1.801
						c-1.657-1.055-2.144-3.254-1.089-4.911c1.054-1.656,3.252-2.143,4.91-1.089l1.145-1.8c-1.656-1.057-2.145-3.255-1.089-4.91
						c1.055-1.657,3.253-2.146,4.909-1.092l1.146-1.799c-1.656-1.055-2.146-3.253-1.09-4.91c1.056-1.658,3.254-2.143,4.91-1.09
						l1.147-1.801c-1.657-1.055-2.146-3.254-1.091-4.91c1.055-1.657,3.254-2.145,4.911-1.09l1.145-1.799
						c-1.656-1.057-2.146-3.254-1.089-4.911c1.055-1.657,3.253-2.146,4.91-1.09l0.955-1.501c-4.971-3.166-6.436-9.761-3.27-14.731
						l-98.128-62.479c-0.262,0.727-0.601,1.439-1.032,2.117c-3.166,4.972-9.761,6.436-14.732,3.27
						c-0.443-0.281-0.849-0.6-1.233-0.931l-0.913,1.431c1.658,1.056,2.147,3.253,1.091,4.909c-1.055,1.657-3.253,2.146-4.909,1.092
						l-1.146,1.8c1.656,1.054,2.145,3.252,1.089,4.909c-1.055,1.658-3.253,2.144-4.909,1.09l-1.146,1.8
						c1.656,1.056,2.145,3.255,1.09,4.912c-1.055,1.655-3.254,2.145-4.91,1.09l-1.146,1.8c1.656,1.056,2.145,3.253,1.09,4.909
						c-1.055,1.657-3.254,2.146-4.91,1.091l-1.146,1.801c1.656,1.054,2.145,3.252,1.089,4.91c-1.055,1.657-3.253,2.144-4.909,1.089
						l-1.147,1.8c1.656,1.055,2.145,3.254,1.091,4.911c-1.057,1.656-3.255,2.144-4.911,1.091l-0.989,1.552
						c0.465,0.211,0.924,0.441,1.366,0.724c4.292,2.733,5.961,8.021,4.303,12.613l98.128,62.48c3.165-4.972,9.761-6.436,14.731-3.27
						l0.813-1.276C541.851,744.963,541.361,742.766,542.416,741.108z"/>
					<g>
						<g id="TICKET_-_Archivo_Black_Regular">
							<path style="fill:#ECF0F1;" d="M485.992,677.047l-2.742,4.306l-1.86-1.184l2.743-4.306l-1.9-1.209l0.942-1.48l5.65,3.598
								l-0.942,1.481L485.992,677.047z"/>
							<path style="fill:#ECF0F1;" d="M486.067,683.146l3.685-5.785l1.857,1.184l-3.685,5.785L486.067,683.146z"/>
							<path style="fill:#ECF0F1;" d="M496.96,685.297l-1.772-1.13c0.424-0.665,0.342-1.318-0.321-1.741
								c-0.791-0.502-1.443-0.15-1.944,0.642l-0.344,0.538c-0.502,0.791-0.532,1.541,0.225,2.021
								c0.732,0.466,1.347,0.301,1.77-0.361l1.715,1.091c-1.014,1.589-2.577,1.799-4.343,0.674
								c-1.976-1.258-2.354-2.927-1.095-4.904c1.259-1.977,2.932-2.341,4.908-1.082C497.439,682.114,497.988,683.682,496.96,685.297
								z"/>
							<path style="fill:#ECF0F1;" d="M503.391,686.045l2.305,1.467l-3.595,1.057l-0.049,4.756l-2.194-1.397l0.147-2.886
								l-1.533,0.182l-0.826,1.297l-1.857-1.183l3.685-5.786l1.857,1.183l-1.573,2.473L503.391,686.045z"/>
							<path style="fill:#ECF0F1;" d="M506.469,688.005l5.004,3.187l-0.884,1.387l-3.146-2.001l-0.508,0.798l2.691,1.714
								l-0.846,1.326l-2.691-1.712l-0.561,0.883l3.203,2.04l-0.884,1.389l-5.064-3.223L506.469,688.005z"/>
							<path style="fill:#ECF0F1;" d="M514.922,695.467l-2.742,4.306l-1.86-1.183l2.742-4.306l-1.899-1.21l0.941-1.48l5.652,3.598
								l-0.942,1.48L514.922,695.467z"/>
						</g>
						<g id="MOVIE_-_Archivo_Black_Regular">
							<path style="fill:#ECF0F1;" d="M488.861,665.986l2.272-3.57c0.953-1.498,2.226-2.991,2.226-2.991l-0.056-0.036l-6.098,5.542
								l-2.49-1.585l2.42-7.866l-0.058-0.035c0,0-0.775,1.791-1.729,3.289l-2.273,3.569l-2.923-1.861l6.304-9.902l4.491,2.858
								l-2.142,6.668l0.058,0.037l5.121-4.769l4.332,2.758l-6.304,9.9L488.861,665.986z"/>
							<path style="fill:#ECF0F1;" d="M507.379,670.816c-2.153,3.382-5.236,3.869-8.619,1.717c-3.382-2.155-4.229-5.143-2.075-8.524
								c2.152-3.383,5.219-3.878,8.601-1.726C508.668,664.435,509.532,667.435,507.379,670.816z M500.229,665.618l-0.586,0.921
								c-0.862,1.354-0.766,2.728,0.631,3.618c1.396,0.888,2.696,0.401,3.557-0.95l0.588-0.922c0.86-1.354,0.751-2.736-0.646-3.626
								C502.378,663.771,501.091,664.265,500.229,665.618z"/>
							<path style="fill:#ECF0F1;" d="M508.017,678.181l2.792-12.137l3.398,2.163l-2.23,7.886l0.058,0.036l6.217-5.347l3.252,2.07
								l-9.802,7.675L508.017,678.181z"/>
							<path style="fill:#ECF0F1;" d="M516.673,683.692l6.305-9.901l3.18,2.025l-6.305,9.9L516.673,683.692z"/>
							<path style="fill:#ECF0F1;" d="M528.435,677.266l8.562,5.452l-1.512,2.376l-5.381-3.428l-0.87,1.369l4.606,2.931
								l-1.448,2.273l-4.606-2.932l-0.963,1.512l5.483,3.49l-1.512,2.374l-8.664-5.516L528.435,677.266z"/>
						</g>
						<polygon style="fill:#29464B;" points="472.656,664.556 478.06,661.238 477.407,667.546 482.232,671.659 476.031,672.986 
							473.612,678.847 470.434,673.361 464.11,672.869 468.346,668.15 466.859,661.986 						"/>
						<polygon style="fill:#29464B;" points="524.859,697.795 530.262,694.476 529.608,700.783 534.435,704.896 528.234,706.225 
							525.813,712.085 522.635,706.6 516.313,706.107 520.549,701.389 519.061,695.224 						"/>
						
							<rect x="491.543" y="660.869" transform="matrix(0.5371 -0.8435 0.8435 0.5371 -359.6246 737.7305)" style="fill:#3E6870;" width="1.6" height="71.31"/>
						
							<rect x="488.487" y="665.669" transform="matrix(0.5371 -0.8435 0.8435 0.5371 -365.0876 737.385)" style="fill:#3E6870;" width="1.601" height="71.31"/>
						<g>
							<g>
								
									<rect x="436.133" y="662.628" transform="matrix(0.5376 -0.8432 0.8432 0.5376 -345.1629 697.9766)" style="fill:#902B20;" width="55.351" height="2.135"/>
							</g>
							<g>
								
									<rect x="507.136" y="707.837" transform="matrix(0.5373 -0.8434 0.8434 0.5373 -350.4232 779.1005)" style="fill:#902B20;" width="55.351" height="2.135"/>
							</g>
							<g>
								<path style="fill:#29464B;" d="M522.401,736.341l-78.403-49.92c-3.971-2.527-5.143-7.815-2.614-11.784l23.034-36.179
									c2.527-3.971,7.813-5.143,11.783-2.616l78.404,49.921c3.971,2.527,5.144,7.813,2.616,11.784l-23.035,36.178
									C531.658,737.695,526.372,738.868,522.401,736.341z M474.673,638.243c-2.646-1.687-6.171-0.903-7.855,1.743l-23.035,36.178
									c-1.685,2.646-0.902,6.171,1.744,7.856l78.403,49.921c2.647,1.684,6.171,0.902,7.857-1.745l23.033-36.177
									c1.685-2.647,0.904-6.171-1.743-7.858L474.673,638.243z"/>
							</g>
						</g>
					</g>
				</g>
			</g>
		</g>
	</g>
</g>
</svg>
